<svg xmlns="http://www.w3.org/2000/svg" xmlns:xlink="http://www.w3.org/1999/xlink" width="558.92" height="235.05" viewBox="40.53933220455653 202.475308699033 558.921335590887 235.04938260193398"><defs><path id="a" d="m380.72 316.24-30.6-28.08c-2.15-1.93-3.47-4.57-3.47-7.6 0-5.85 5.03-10.61 11.22-10.61h33.86v-14.64h-51.78c-16.06 0-29.41 10.81-29.41 27.75 0 7.24 2.93 13.82 7.74 18.76 3.6 3.41 32.45 30.62 36.06 34.02 0 0 6.07 4.39 3.96 11.63-2.11 7.24-11.31 7.24-14.76 7.24h-32.99v29.68h50.06c20.25 0 36.67-15.48 36.67-34.59v-.27c.56-14.28-7.12-24.53-16.56-33.29"/><path id="b" d="m582.86 316.24-30.59-28.08c-2.15-1.93-3.47-4.57-3.47-7.6 0-5.85 5.03-10.61 11.22-10.61h33.85v-14.64H542.1c-16.06 0-29.41 10.81-29.41 27.75 0 7.24 2.93 13.82 7.74 18.76 3.6 3.41 32.45 30.62 36.05 34.02 0 0 6.08 4.39 3.97 11.63-2.11 7.24-11.31 7.24-14.77 7.24h-32.99v29.68h50.07c20.25 0 36.67-15.48 36.67-34.59v-.27c.56-14.28-7.12-24.53-16.57-33.29"/><path id="c" d="M479.72 310.55c13.12-4.02 19.92-13.67 19.92-27.23 0-9.09-4.31-16.7-11.07-21.66-9.72-6.7-24.29-6.18-24.29-6.18-.01 0-.01-.03-.01-.03h-57.14c0 12.89.02 116.03.02 128.93h60.79c5.13-.24 15.96-1.65 24.73-8.8 7.78-6.86 13.04-17.11 13.04-28.66 0-15.5-8.65-30.45-25.99-36.37Zm-27.96-40.36c2.08 0 16.43 0 17.61 13.95.85 10.01-5.96 16.26-16.95 16.26h-14.38v-30.21h13.72Zm-13.72 84.54v-34.35h15.83c2.08 0 18.07.01 19.26 15.88.85 11.36-7.61 18.47-18.61 18.47h-16.48Z"/><path id="d" d="M261.46 282.7c-3.71-5.01-6.56-9.51-1.52-8.18 4.64 1.22 1.2-9.26 5.53-6.64-6.82-31.29-44.39-49.87-73.01-60.25-6.78-1.47-13.57-2.95-20.34-4.43-3.76.01-9.04-.72-12.8-.72-24.09 3.02-46.72 3.14-67.02 17.33-6.01 4.49-11.98 12.61-18.75 18.58-3.76 3.74-5.25 6.72-9.02 10.45-15.02 18.66-21.76 39.54-23.97 62.64-.67 46.2 15.01 82 58.62 105.91 4.68 2.56 36.41 17.56 53.12 19.65 19.77 2.47 46.31-5.11 53.83-8.85 6.01-4.48 12.41-4.12 16.91-9.34 3.76-3.73 12.55-9.48 14.8-13.96 10.5-17.15 39.21-47.64 36.16-67.75 2.86-28.11 2.14-34.58-12.54-54.44Z"/><path id="e" d="M222.91 294.94c-2.23-3-3.94-5.71-.92-4.91 2.79.73 3.66-2.88 3.33-3.98-4.1-18.77-26.64-29.92-43.82-36.14-4.06-.89-8.14-1.78-12.2-2.67-2.26.01-5.42-.44-7.69-.43-14.44 1.82-28.02 1.88-40.2 10.4-3.61 2.69-7.2 7.56-11.26 11.15-2.25 2.24-3.14 4.03-5.4 6.27-9.02 11.19-13.06 23.72-14.39 37.58-.4 27.71 9.02 49.2 35.18 63.55 2.81 1.54 21.85 10.54 31.87 11.79 11.86 1.47 27.78-3.07 32.29-5.31 3.62-2.7 7.46-2.48 10.15-5.62 2.26-2.24 7.53-5.68 8.89-8.36 6.3-10.3 23.52-28.58 21.68-40.65 1.72-16.87 1.29-20.75-7.51-32.67Z"/><path id="f" d="M180.85 274.11c25.44 12.53 35.8 43.11 23.14 68.3-12.67 25.19-43.57 35.44-69.01 22.9-25.45-12.53-35.81-43.11-23.15-68.3 12.67-25.19 43.56-35.44 69.02-22.9Z"/></defs><use xlink:href="#a" fill="#005a91"/><use xlink:href="#a" fill-opacity="0" stroke="#000" stroke-opacity="0"/><use xlink:href="#b" fill="#005a91"/><use xlink:href="#b" fill-opacity="0" stroke="#000" stroke-opacity="0"/><use xlink:href="#c" fill="#005a91"/><use xlink:href="#c" fill-opacity="0" stroke="#000" stroke-opacity="0"/><use xlink:href="#d" fill="#008bca"/><use xlink:href="#d" fill-opacity="0" stroke="#000" stroke-opacity="0"/><use xlink:href="#e" fill="#f8a922"/><use xlink:href="#e" fill-opacity="0" stroke="#000" stroke-opacity="0"/><use xlink:href="#f" fill="#fff"/><use xlink:href="#f" fill-opacity="0" stroke="#000" stroke-opacity="0"/></svg>