<svg xmlns="http://www.w3.org/2000/svg" viewBox="0 0 735.07 101.6"><defs><style>.cls-1{fill:#003453;}.cls-2{fill:#fff;}</style></defs><title>portfolio</title><g id="레이어_2" data-name="레이어 2"><g id="레이어_1-2" data-name="레이어 1"><path class="cls-1" d="M48.75,2.32H0V39.06H31v-12H38q5.68,0,8.19,1.16t2.52,5.29v5.53H82c0-.34,0-.67,0-1Q82,2.33,48.75,2.32Z"/><path class="cls-1" d="M168.1,12.12A31.56,31.56,0,0,0,154,3q-8.7-3-21.73-3T110.65,3a31.48,31.48,0,0,0-14.12,9.15,36.42,36.42,0,0,0-7.61,15.8,81.41,81.41,0,0,0-1.75,11.14h32.76V34.69q0-5.28,2.84-6.77t9-1.48h13V39.06h32.63a81.47,81.47,0,0,0-1.74-11.14A36.53,36.53,0,0,0,168.1,12.12Z"/><path class="cls-1" d="M237.54,2.32H188.8V39.06h30.95v-12h7.09q5.67,0,8.19,1.16c1.68.78,2.51,2.54,2.51,5.29v5.53h33.22q.06-1.38.06-2.82Q270.82,2.33,237.54,2.32Z"/><polygon class="cls-1" points="352.83 27.08 352.83 2.32 277 2.32 277 27.08 299.44 27.08 299.44 39.06 330.39 39.06 330.39 27.08 352.83 27.08"/><polygon class="cls-1" points="420.92 27.08 424.79 2.32 361.35 2.32 361.35 39.06 392.3 39.06 392.3 27.08 420.92 27.08"/><path class="cls-1" d="M510.87,12.12A31.53,31.53,0,0,0,496.82,3q-8.71-3-21.73-3T453.42,3a31.54,31.54,0,0,0-14.12,9.15,36.53,36.53,0,0,0-7.61,15.8A81.47,81.47,0,0,0,430,39.06h32.76V34.69q0-5.28,2.83-6.77t9-1.48h13V39.06h32.63a83,83,0,0,0-1.75-11.14A36.42,36.42,0,0,0,510.87,12.12Z"/><rect class="cls-1" x="531.57" y="2.32" width="30.95" height="36.74"/><rect class="cls-1" x="601.98" y="2.32" width="30.95" height="36.74"/><path class="cls-1" d="M725.2,12.12A31.58,31.58,0,0,0,711.15,3q-8.71-3-21.73-3T667.75,3a31.54,31.54,0,0,0-14.12,9.15A36.42,36.42,0,0,0,646,27.92a81.47,81.47,0,0,0-1.74,11.14H677V34.69q0-5.28,2.83-6.77t9-1.48h13V39.06h32.63a83,83,0,0,0-1.75-11.14A36.42,36.42,0,0,0,725.2,12.12Z"/><path class="cls-2" d="M48.75,44.6q0,4.26-2.52,5.41T38,51.18H31V39.3H0v60H31V75.94H51.07q8.76,0,14.64-3a26,26,0,0,0,9.54-8.06A32.31,32.31,0,0,0,80.47,53,65.79,65.79,0,0,0,82,39.3H48.75Z"/><path class="cls-2" d="M144.82,66.91c0,3.53-.92,5.78-2.77,6.77s-4.92,1.48-9.22,1.48h-12.9V39.3H87.17c-.33,3.64-.51,7.55-.51,11.75a105.27,105.27,0,0,0,2.06,22.11A36.62,36.62,0,0,0,96,89a31.57,31.57,0,0,0,14.06,9.48q8.82,3.16,22.24,3.16t22.25-3.16A31.63,31.63,0,0,0,168.62,89a36.49,36.49,0,0,0,7.28-15.8A104.6,104.6,0,0,0,178,51.05q0-6.3-.51-11.75H144.82Z"/><path class="cls-2" d="M237.54,40.21c0,2.76-.83,4.52-2.51,5.29s-4.41,1.16-8.19,1.16h-7.09V39.3H188.8v60h30.95V70.52h6.7l12.64,28.76h34L256.37,67q13.54-6.9,14.39-27.74H237.54Z"/><rect class="cls-2" x="299.44" y="39.3" width="30.95" height="59.98"/><polygon class="cls-2" points="361.35 99.28 392.3 99.28 392.3 63.43 418.6 63.43 418.6 40.34 392.3 40.34 392.3 39.3 361.35 39.3 361.35 99.28"/><path class="cls-2" d="M487.6,66.91c0,3.53-.93,5.78-2.78,6.77s-4.92,1.48-9.22,1.48H462.71V39.3H430q-.51,5.46-.51,11.75a104.6,104.6,0,0,0,2.06,22.11A36.39,36.39,0,0,0,438.79,89a31.54,31.54,0,0,0,14,9.48q8.84,3.16,22.25,3.16t22.24-3.16A31.57,31.57,0,0,0,511.39,89a36.62,36.62,0,0,0,7.29-15.8,105.27,105.27,0,0,0,2.06-22.11c0-4.2-.18-8.11-.51-11.75H487.6Z"/><polygon class="cls-2" points="531.57 99.28 593.47 99.28 593.47 74.52 562.52 74.52 562.52 39.3 531.57 39.3 531.57 99.28"/><rect class="cls-2" x="601.98" y="39.3" width="30.95" height="59.98"/><path class="cls-2" d="M701.93,66.91c0,3.53-.93,5.78-2.78,6.77s-4.92,1.48-9.22,1.48H677V39.3H644.28q-.51,5.46-.52,11.75a104.55,104.55,0,0,0,2.07,22.11A36.49,36.49,0,0,0,653.11,89a31.63,31.63,0,0,0,14.06,9.48q8.83,3.16,22.25,3.16t22.24-3.16A31.57,31.57,0,0,0,725.72,89,36.62,36.62,0,0,0,733,73.16a105.27,105.27,0,0,0,2.06-22.11c0-4.2-.18-8.11-.51-11.75H701.93Z"/></g></g></svg>