<svg xmlns="http://www.w3.org/2000/svg" viewBox="0 0 1047.78 516.99"><defs><style>.cls-1{fill:#231f20;}</style></defs><g id="Layer_2" data-name="Layer 2"><g id="Layer_1-2" data-name="Layer 1"><path class="cls-1" d="M73.46,183.31H10.07c-3.22,0-5.71-.6-7.45-1.81A5.9,5.9,0,0,1,0,176.33q0-5.51,5.37-7.25,4.44-1.49,5.17-1.81a4.25,4.25,0,0,0,1.55-1.55q1.61-2.15,1.61-6.85V24.44q0-4.7-1.61-6.85a4.21,4.21,0,0,0-1.55-1.54c-.49-.22-2.21-.83-5.17-1.81C1.79,13.07,0,10.66,0,7A5.92,5.92,0,0,1,2.62,1.81C4.36.6,6.85,0,10.07,0H77q4.83,0,7.46,1.81A5.93,5.93,0,0,1,87,7c0,3.68-1.79,6.09-5.37,7.26-3,1-4.68,1.59-5.17,1.81a4.12,4.12,0,0,0-1.54,1.54c-1.08,1.44-1.61,3.72-1.61,6.85V158.87c0,3.14.53,5.42,1.61,6.85a4.16,4.16,0,0,0,1.54,1.55c.49.22,2.22.82,5.17,1.81Q87,170.82,87,176.33a5.92,5.92,0,0,1-2.61,5.17q-2.62,1.81-7.46,1.81Z"/><path class="cls-1" d="M128.79,47.14,143,70.77v72q0,9.39,3.15,15.44a24.56,24.56,0,0,0,10,9.94l4,2.28a6.56,6.56,0,0,1,3.49,6,6.26,6.26,0,0,1-2.55,5.11c-1.44,1.16-4.39,1.74-8.87,1.74h-31q-12.22,0-12.22-7a5.5,5.5,0,0,1,1.27-3.83,24.7,24.7,0,0,1,5.58-3.82q12.88-7.12,12.89-25.92ZM185.06,0l71.45,124.09v59.22H219.84L128.66,26.19a42.54,42.54,0,0,0-4.84-7.12A11,11,0,0,0,119,16.12l-5.11-1.88a6.27,6.27,0,0,1-3.22-2.42,6.65,6.65,0,0,1-1.21-3.9,7.85,7.85,0,0,1,1.21-4.23A6.71,6.71,0,0,1,113.88.94Q116.16,0,126.24,0Zm71.45,102.6-14.24-24V41.36q0-11.28-3.29-17.25T227.36,13.83a9.56,9.56,0,0,1-3.89-2.89,6.74,6.74,0,0,1-1.08-4,6.09,6.09,0,0,1,2.35-5.3Q227.1,0,232.33,0h33.58q6.84,0,9,2.15a6.74,6.74,0,0,1,2.29,5.1,6.13,6.13,0,0,1-1.28,4.23q-1.28,1.41-6.11,3.83a23.55,23.55,0,0,0-10.74,11.15q-2.55,5.5-2.55,14.9Z"/><path class="cls-1" d="M367,0V157.8q0,5.23,2,7.52a5,5,0,0,0,2,1.68q.94.33,6.18,1.68,6.45,1.47,6.44,7.38a6.42,6.42,0,0,1-3.49,5.64c-1.7,1.08-4.52,1.61-8.46,1.61h-68c-3.23,0-5.71-.6-7.46-1.81a5.92,5.92,0,0,1-2.61-5.17q0-5.51,5.37-7.25,4.43-1.49,5.17-1.81a4.24,4.24,0,0,0,1.54-1.55c1.08-1.43,1.61-3.71,1.61-6.85V24.44c0-3.13-.53-5.41-1.61-6.85a4.19,4.19,0,0,0-1.54-1.54c-.5-.22-2.22-.83-5.17-1.81-3.58-1.17-5.37-3.58-5.37-7.26a5.93,5.93,0,0,1,2.61-5.17C298.07.6,300.55,0,303.78,0H367Zm11.15,97.77V82.19q7.92-3.76,11.61-8.13c2.47-2.9,4.28-6.87,5.44-11.88q1.08-5.1,2.82-7a6.33,6.33,0,0,1,5-2q4.31,0,5.91,3.36.94,1.74.94,7.92v51.17q0,6.32-1.41,8.73t-5.17,2.42a6.27,6.27,0,0,1-4.83-1.88c-1.17-1.26-2.11-3.36-2.82-6.32q-2.43-9.26-6.58-14.23A19.82,19.82,0,0,0,378.18,97.77ZM378.85,0H433V46.87c0,3-.54,5.24-1.61,6.58s-2.82,2-5.24,2a6,6,0,0,1-4.23-1.41,10.92,10.92,0,0,1-2.62-4.76A56.39,56.39,0,0,0,414,37.2a43.3,43.3,0,0,0-7.25-9.4,39.65,39.65,0,0,0-12.08-8.19,57.18,57.18,0,0,0-15.85-3.9Z"/><path class="cls-1" d="M523,183.31H459.56c-3.22,0-5.71-.6-7.45-1.81a5.9,5.9,0,0,1-2.62-5.17q0-5.51,5.37-7.25,4.44-1.49,5.17-1.81a4.25,4.25,0,0,0,1.55-1.55q1.6-2.15,1.61-6.85V24.44q0-4.7-1.61-6.85A4.21,4.21,0,0,0,460,16.05c-.49-.22-2.21-.83-5.17-1.81-3.58-1.17-5.37-3.58-5.37-7.26a5.92,5.92,0,0,1,2.62-5.17C453.85.6,456.34,0,459.56,0h66.88c3.22,0,5.71.6,7.45,1.81A5.92,5.92,0,0,1,536.51,7c0,3.68-1.79,6.09-5.37,7.26-2.95,1-4.68,1.59-5.17,1.81a4.12,4.12,0,0,0-1.54,1.54q-1.62,2.16-1.62,6.85V158.87q0,4.71,1.62,6.85a4.16,4.16,0,0,0,1.54,1.55c.49.22,2.22.82,5.17,1.81q5.37,1.74,5.37,7.25a5.9,5.9,0,0,1-2.62,5.17c-1.74,1.21-4.23,1.81-7.45,1.81Z"/><path class="cls-1" d="M578.28,47.14l14.23,23.63v72q0,9.39,3.16,15.44a24.56,24.56,0,0,0,10,9.94l4,2.28a6.55,6.55,0,0,1,3.5,6,6.24,6.24,0,0,1-2.56,5.11q-2.14,1.74-8.86,1.74h-31q-12.22,0-12.22-7a5.5,5.5,0,0,1,1.27-3.83,24.7,24.7,0,0,1,5.58-3.82q12.89-7.12,12.89-25.92ZM634.55,0,706,124.09v59.22H669.33L578.14,26.19a42.64,42.64,0,0,0-4.83-7.12,11.08,11.08,0,0,0-4.83-2.95l-5.11-1.88a6.23,6.23,0,0,1-3.22-2.42,6.65,6.65,0,0,1-1.21-3.9,7.85,7.85,0,0,1,1.21-4.23A6.66,6.66,0,0,1,563.37.94Q565.65,0,575.73,0ZM706,102.6l-14.23-24V41.36q0-11.28-3.29-17.25T676.85,13.83A9.56,9.56,0,0,1,673,10.94a6.74,6.74,0,0,1-1.08-4,6.09,6.09,0,0,1,2.35-5.3Q676.58,0,681.82,0H715.4q6.84,0,9,2.15a6.78,6.78,0,0,1,2.29,5.1,6.13,6.13,0,0,1-1.28,4.23q-1.27,1.41-6.11,3.83a23.55,23.55,0,0,0-10.74,11.15Q706,32,706,41.36Z"/><path class="cls-1" d="M737.69,0H773V16.25a27.22,27.22,0,0,0-9.81,9.27,56.89,56.89,0,0,0-7.78,21.62l-1.35,8.19a11.08,11.08,0,0,1-2.88,6.11,7.57,7.57,0,0,1-5.58,2.22,7.41,7.41,0,0,1-5.71-2.42,9,9,0,0,1-2.21-6.31ZM843.51,0V157.8c0,3.49.68,6,2,7.52a5,5,0,0,0,2,1.68q.94.33,6.18,1.68,6.45,1.47,6.45,7.38,0,3.49-3.5,5.64c-1.7,1.08-4.56,1.61-8.59,1.61H779.32q-5.91,0-8.93-1.81a5.92,5.92,0,0,1-3-5.44q0-5.91,6.44-7.38c3.5-.9,5.55-1.46,6.18-1.68a4.33,4.33,0,0,0,1.88-1.68c1.34-1.52,2-4,2-7.52V0ZM890,0V54.93a9,9,0,0,1-2.22,6.31,7.38,7.38,0,0,1-5.7,2.42,7.57,7.57,0,0,1-5.58-2.22,11,11,0,0,1-2.88-6.11l-1.35-8.19a56.9,56.9,0,0,0-7.79-21.62,28.63,28.63,0,0,0-9.8-9.27V0Z"/><path class="cls-1" d="M979.82,0V183.31H916.57c-3.22,0-5.71-.6-7.45-1.81a5.9,5.9,0,0,1-2.62-5.17q0-5.51,5.37-7.25c3-1,4.68-1.59,5.17-1.81a4.16,4.16,0,0,0,1.54-1.55q1.62-2.15,1.62-6.85V24.44q0-4.7-1.62-6.85A4.12,4.12,0,0,0,917,16.05c-.49-.22-2.22-.83-5.17-1.81-3.58-1.17-5.37-3.58-5.37-7.26a5.92,5.92,0,0,1,2.62-5.17C910.86.6,913.35,0,916.57,0h63.25ZM991.1,97.77V82.19q7.8-3.76,11.55-8.19a27.89,27.89,0,0,0,5.51-11.82q1.08-5.1,2.82-7a6.32,6.32,0,0,1,5-2q4.29,0,5.91,3.36c.62,1.16.94,3.8.94,7.92v51.17q0,6.32-1.41,8.73c-.94,1.61-2.67,2.42-5.17,2.42a6.3,6.3,0,0,1-4.84-1.88c-1.16-1.26-2.1-3.36-2.82-6.32q-2.28-9.26-6.51-14.23A20.12,20.12,0,0,0,991.1,97.77ZM991.78,0h54.12V47.54q0,4.17-1.61,6c-1.08,1.26-2.78,1.88-5.11,1.88a6.32,6.32,0,0,1-4.29-1.2q-1.35-1.21-2.56-5-5.1-15.58-15-23.77t-25.58-9.81Zm.13,183.31v-14.5a61.42,61.42,0,0,0,14.44-3.76,44.18,44.18,0,0,0,11.48-7.39,48,48,0,0,0,9.2-10.27,68.38,68.38,0,0,0,6.51-14q1.49-4.31,3.09-5.85a6.18,6.18,0,0,1,4.43-1.54c2.51,0,4.25.74,5.24,2.22s1.48,4.05,1.48,7.72v47.4Z"/><path class="cls-1" d="M73.33,330.05V513.36H10.07c-3.22,0-5.71-.6-7.45-1.81A5.9,5.9,0,0,1,0,506.38q0-5.5,5.37-7.26,4.44-1.47,5.17-1.81a4.21,4.21,0,0,0,1.55-1.54c1.07-1.43,1.61-3.72,1.61-6.85V354.49q0-4.71-1.61-6.85a4.25,4.25,0,0,0-1.55-1.55q-.73-.33-5.17-1.81Q0,342.54,0,337a5.9,5.9,0,0,1,2.62-5.17c1.74-1.21,4.23-1.81,7.45-1.81H73.33ZM100.45,475V369q0-9.8-2.82-15.58a13.13,13.13,0,0,0-4.29-5.5,23.9,23.9,0,0,0-8.06-3v-14.9a117.36,117.36,0,0,1,12.08.53q17.06,1.89,33,14.51a72.58,72.58,0,0,1,23.5,31.83q7.93,19.88,7.93,44,0,27.41-10.08,48.69a79.55,79.55,0,0,1-28.87,33.5,62,62,0,0,1-17,8.06q-7.86,2.15-20.61,2.15v-14.5a38.62,38.62,0,0,0,7.85-2.69A10.56,10.56,0,0,0,97,492.41a17.86,17.86,0,0,0,2.75-6.65A58.41,58.41,0,0,0,100.45,475Z"/><path class="cls-1" d="M251.67,330.05V513.36H188.42c-3.23,0-5.71-.6-7.46-1.81a5.92,5.92,0,0,1-2.61-5.17q0-5.5,5.37-7.26,4.42-1.47,5.17-1.81a4.19,4.19,0,0,0,1.54-1.54c1.08-1.43,1.61-3.72,1.61-6.85V354.49c0-3.14-.53-5.42-1.61-6.85a4.24,4.24,0,0,0-1.54-1.55q-.75-.33-5.17-1.81-5.37-1.74-5.37-7.25a5.92,5.92,0,0,1,2.61-5.17c1.75-1.21,4.23-1.81,7.46-1.81h63.25ZM263,427.81V412.23q7.79-3.75,11.55-8.19A27.9,27.9,0,0,0,280,392.23q1.07-5.12,2.82-7.06a6.35,6.35,0,0,1,5-1.94q4.29,0,5.91,3.35c.62,1.17.94,3.81.94,7.93v51.16q0,6.31-1.41,8.73c-.94,1.62-2.67,2.42-5.18,2.42a6.23,6.23,0,0,1-4.83-1.88c-1.16-1.25-2.1-3.36-2.82-6.31q-2.28-9.27-6.51-14.24A20.18,20.18,0,0,0,263,427.81Zm.67-97.76h54.12v47.54c0,2.77-.53,4.79-1.61,6s-2.77,1.88-5.1,1.88a6.31,6.31,0,0,1-4.3-1.21q-1.34-1.2-2.55-5-5.1-15.57-15-23.77t-25.59-9.8Zm.14,183.31v-14.5a61.69,61.69,0,0,0,14.43-3.76,44.59,44.59,0,0,0,11.49-7.39,48.83,48.83,0,0,0,9.2-10.27,68.49,68.49,0,0,0,6.51-14q1.47-4.29,3.09-5.84a6.13,6.13,0,0,1,4.43-1.54c2.51,0,4.25.73,5.24,2.21s1.47,4,1.47,7.72v47.41Z"/><path class="cls-1" d="M401.68,326.42v15.44q-8.32,2.29-12.69,7.05a16.77,16.77,0,0,0-4.37,11.75,19.59,19.59,0,0,0,3.63,11.76q3.63,5,11.82,9.6,5.64,3.09,25.51,11.82a139.49,139.49,0,0,1,18.74,9.46,65.54,65.54,0,0,1,12.56,10.55,55.49,55.49,0,0,1,15.84,39.61,61,61,0,0,1-32.23,54.26,79.34,79.34,0,0,1-17.66,6.78A71.66,71.66,0,0,1,404.9,517V501.68q11.69-2.82,16.86-7.86t5.17-13.63q0-9-8.06-15.85-5.37-4.43-20.41-11-16.53-7.26-22.63-10.34a82.42,82.42,0,0,1-11.75-7.25q-25.26-18-25.25-47.95a63.68,63.68,0,0,1,6.31-28.27,53.78,53.78,0,0,1,17.59-20.88Q378.45,327.63,401.68,326.42Zm-7,175.26V517q-11,0-24.31-6.32c-3.31-1.52-5.6-2.5-6.85-2.95a10.72,10.72,0,0,0-3.63-.67,7.51,7.51,0,0,0-4,.87,25.9,25.9,0,0,0-4.29,4.37c-1.61,2-3.36,3-5.24,3q-7.53,0-7.52-11.55V454.81a9.68,9.68,0,0,1,2.15-6.38,7.1,7.1,0,0,1,5.37-2.76,5.68,5.68,0,0,1,4.63,1.68q1.68,1.81,2.89,6.38a88.52,88.52,0,0,0,8.93,21.62,69.49,69.49,0,0,0,13.63,17.06A37.19,37.19,0,0,0,394.7,501.68Zm17.59-159.82V327.09a76.07,76.07,0,0,1,14,2.08A137.75,137.75,0,0,1,443,335.28a12.49,12.49,0,0,0,4.43,1.08,4.24,4.24,0,0,0,3.76-1.75l3-3.89a6.33,6.33,0,0,1,5.24-3,5.85,5.85,0,0,1,5.3,2.62q1.68,2.63,1.68,8.26V383a9.22,9.22,0,0,1-2.22,6.38,7.27,7.27,0,0,1-5.7,2.48,8,8,0,0,1-5-1.74,8.13,8.13,0,0,1-1.95-2.62,23.1,23.1,0,0,1-1.41-5.17,56.9,56.9,0,0,0-5.1-13.57,63.09,63.09,0,0,0-8.46-12.49A46,46,0,0,0,412.29,341.86Z"/><path class="cls-1" d="M567.27,513.36H503.88c-3.22,0-5.71-.6-7.45-1.81a5.9,5.9,0,0,1-2.62-5.17q0-5.5,5.37-7.26c2.95-1,4.68-1.58,5.17-1.81a4.12,4.12,0,0,0,1.54-1.54c1.08-1.43,1.61-3.72,1.61-6.85V354.49c0-3.14-.53-5.42-1.61-6.85a4.16,4.16,0,0,0-1.54-1.55c-.49-.22-2.22-.82-5.17-1.81q-5.37-1.74-5.37-7.25a5.9,5.9,0,0,1,2.62-5.17c1.74-1.21,4.23-1.81,7.45-1.81h66.88c3.22,0,5.71.6,7.45,1.81a5.9,5.9,0,0,1,2.62,5.17q0,5.5-5.37,7.25-4.44,1.49-5.17,1.81a4.25,4.25,0,0,0-1.55,1.55q-1.61,2.14-1.61,6.85V488.92c0,3.13.54,5.42,1.61,6.85a4.21,4.21,0,0,0,1.55,1.54q.74.35,5.17,1.81,5.37,1.75,5.37,7.26a5.9,5.9,0,0,1-2.62,5.17c-1.74,1.21-4.23,1.81-7.45,1.81Z"/><path class="cls-1" d="M672.82,326.42v14.91Q661,344.15,661,360.13v125q0,7.24,2,11.14,1.74,3.22,7.39,5.51V517a42.23,42.23,0,0,1-7.86-.68,72.4,72.4,0,0,1-9.47-2.68,76.2,76.2,0,0,1-25.52-14.77,83.41,83.41,0,0,1-18.8-23.77q-11.41-21.63-11.41-51.17,0-28.6,10.21-50.77t29.27-34.78a75.93,75.93,0,0,1,23.64-10.61A50.4,50.4,0,0,1,672.82,326.42Zm71.72,164.51a80.77,80.77,0,0,1-14.31,10.95,112.08,112.08,0,0,1-16.85,8.79,95,95,0,0,1-16,4.57A81.14,81.14,0,0,1,681.82,517V501.81a17.91,17.91,0,0,0,5.84-2.28,10.85,10.85,0,0,0,3.29-3.76,21.83,21.83,0,0,0,2.29-10.61V445.94c0-3.49-.68-6-2-7.52a4.33,4.33,0,0,0-1.88-1.68c-.63-.22-2.68-.73-6.18-1.54q-6.43-1.6-6.44-7.52a6,6,0,0,1,3-5.37c2-1.26,5-1.88,8.93-1.88h53.58q6,0,8.53,1.68c1.66,1.12,2.49,3.06,2.49,5.84a8.13,8.13,0,0,1-1,4.23,12.85,12.85,0,0,1-3.69,3.56,9.08,9.08,0,0,0-3.36,3.49,17.41,17.41,0,0,0-.67,5.91Zm-60.7-149.87V326.55q21.88,2,36,8.06a17.11,17.11,0,0,0,6.44,1.88,4.78,4.78,0,0,0,3.29-1,49.06,49.06,0,0,0,4.64-5.7,7.2,7.2,0,0,1,6-3.36q3.75,0,5.31,2.08c1,1.39,1.54,3.69,1.54,6.92v52.24q0,10.2-7.52,10.21c-2.51,0-4.37-.68-5.58-2s-2.34-4-3.42-7.92a88,88,0,0,0-7.25-17.53,89.91,89.91,0,0,0-10.07-15.78,35.16,35.16,0,0,0-12.36-9.87Q694,341.6,683.84,341.06Z"/><path class="cls-1" d="M793.15,377.18l14.24,23.64v72q0,9.4,3.15,15.45a24.6,24.6,0,0,0,10,9.93l4,2.29a6.55,6.55,0,0,1,3.49,6,6.23,6.23,0,0,1-2.55,5.1c-1.44,1.17-4.39,1.75-8.87,1.75h-31q-12.23,0-12.22-7a5.5,5.5,0,0,1,1.28-3.83,24.51,24.51,0,0,1,5.57-3.83q12.88-7.11,12.89-25.92Zm56.27-47.13,71.45,124.09v59.22H884.21L793,356.23a41.76,41.76,0,0,0-4.84-7.11,11,11,0,0,0-4.83-3l-5.1-1.88a6.2,6.2,0,0,1-3.23-2.42,6.71,6.71,0,0,1-1.21-3.89,7.93,7.93,0,0,1,1.21-4.23,6.58,6.58,0,0,1,3.23-2.75q2.28-.94,12.35-.94Zm71.45,102.6-14.24-24v-37.2q0-11.28-3.29-17.26t-11.61-10.27a9.86,9.86,0,0,1-3.9-2.89,6.76,6.76,0,0,1-1.07-4,6.08,6.08,0,0,1,2.35-5.31q2.34-1.67,7.58-1.67h33.58c4.57,0,7.56.71,9,2.14a6.81,6.81,0,0,1,2.28,5.11,6.13,6.13,0,0,1-1.28,4.23c-.85.94-2.88,2.21-6.11,3.82a23.69,23.69,0,0,0-10.74,11.15q-2.55,5.5-2.55,14.91Z"/></g></g></svg>