<svg xmlns="http://www.w3.org/2000/svg" viewBox="0 0 67 67"><defs><style>.cls-1{fill:#fff;}.cls-2{fill-rule:evenodd;opacity:0.25;isolation:isolate;}</style></defs><g id="Layer_2" data-name="Layer 2"><g id="main"><circle class="cls-1" cx="33.5" cy="33.5" r="33.5"/><path class="cls-2" d="M33.11,55.89,15.19,38a11.25,11.25,0,0,1,0-15.72,10.79,10.79,0,0,1,15.44,0L28.88,24a8.35,8.35,0,0,0-11.94,0,8.78,8.78,0,0,0,0,12.27L33.11,52.42,49.83,35.69A8.72,8.72,0,0,0,49.35,24a8.38,8.38,0,0,0-12,0l-7.52,7.57a3.56,3.56,0,0,0-.08,5l.07.07a3.76,3.76,0,0,0,5.26,0l7.34-7.33,1.73,1.74-7.33,7.33a6.26,6.26,0,0,1-8.73,0,6,6,0,0,1,0-8.6l7.52-7.55a10.81,10.81,0,0,1,15.45,0,11.19,11.19,0,0,1,.52,15.11Z"/></g></g></svg>