<svg xmlns="http://www.w3.org/2000/svg" viewBox="0 0 19.33 16.66"><defs><style>.cls-1{fill:none;stroke:#295d76;stroke-miterlimit:10;}</style></defs><g id="Layer_2" data-name="Layer 2"><g id="Layer_1-2" data-name="Layer 1"><path class="cls-1" d="M8.59,15.73l-.09-.08L2.22,9.82A5.38,5.38,0,0,1,.5,5.87V5.75A5.25,5.25,0,0,1,8.77,1.46a5.61,5.61,0,0,1,.9.8,5.44,5.44,0,0,1,.48-.48l.41-.32h0a5.24,5.24,0,0,1,8.27,4.29v.12a5.38,5.38,0,0,1-1.72,4l-6.27,5.83-.09.08a1.62,1.62,0,0,1-1.08.43,1.55,1.55,0,0,1-1.08-.43Z"/></g></g></svg>