<?xml version="1.0" encoding="utf-8"?>
<!-- Generator: Adobe Illustrator 24.0.2, SVG Export Plug-In . SVG Version: 6.00 Build 0)  -->
<svg version="1.1" xmlns="http://www.w3.org/2000/svg" xmlns:xlink="http://www.w3.org/1999/xlink" x="0px" y="0px"
	 viewBox="0 0 1440 3741.3" style="enable-background:new 0 0 1440 3741.3;" xml:space="preserve">
<style type="text/css">
	.st0{fill:#E5EAF0;}
	.st1{fill:none;stroke:#2B4F5E;stroke-miterlimit:10;}
	.st2{fill:#2B4F5E;}
</style>
<g id="레이어_1">
</g>
<g id="Layer_1">
	<rect x="-1514.3" y="25.6" class="st0" width="1440" height="3744.9"/>
	<g>
		
			<image style="overflow:visible;opacity:0.34;" width="761" height="3758" xlink:href="AC21D19CC8645681.png"  transform="matrix(1 0 0 1 -1164.1705 9.8226)">
		</image>
		<g>
			
				<image style="overflow:visible;" width="1920" height="10510" xlink:href="AC21D19CC8645683.jpg"  transform="matrix(0.3489 0 0 0.3489 -1129.1953 48.6841)">
			</image>
		</g>
	</g>
	<g>
		
			<image style="overflow:visible;opacity:0.34;" width="657" height="3189" xlink:href="AC21D19CC8645686.png"  transform="matrix(1 0 0 1 84.2896 -1330.6987)">
		</image>
		<g>
			
				<image style="overflow:visible;" width="1920" height="10510" xlink:href="AC21D19CC8645687.jpg"  transform="matrix(0.2948 0 0 0.2948 118.7762 -1292.1597)">
			</image>
		</g>
	</g>
	<g>
		
			<image style="overflow:visible;opacity:0.34;" width="657" height="3189" xlink:href="AC21D19CC8645682.png"  transform="matrix(1 0 0 1 749.3368 -346.0305)">
		</image>
		<g>
			
				<image style="overflow:visible;" width="1920" height="10510" xlink:href="AC21D19CC8645682.jpg"  transform="matrix(0.2948 0 0 0.2948 783.7239 -307.4513)">
			</image>
		</g>
	</g>
	<text transform="matrix(1 0 0 1 -1438.9972 156.6492)"><tspan x="0" y="0" class="st2" style="font-family:'SpoqaHanSansNeo-Regular'; font-size:22px;">기존 탭 메뉴의 오류를 수정하여</tspan><tspan x="0" y="26.4" class="st2" style="font-family:'SpoqaHanSansNeo-Regular'; font-size:22px;">사용자들이 직관적으로 메뉴를 </tspan><tspan x="0" y="52.8" class="st2" style="font-family:'SpoqaHanSansNeo-Regular'; font-size:22px;">사용할 수 있도록 구성하였습니다.</tspan></text>
	<text transform="matrix(1 0 0 1 -402.0435 839.7913)"><tspan x="0" y="0" class="st2" style="font-family:'SpoqaHanSansNeo-Regular'; font-size:22px;">랩시리즈 브랜드에서 </tspan><tspan x="0" y="26.4" class="st2" style="font-family:'SpoqaHanSansNeo-Regular'; font-size:22px;">가장 중요하게 생각하는 </tspan><tspan x="0" y="52.8" class="st2" style="font-family:'SpoqaHanSansNeo-Regular'; font-size:22px;">내용을 시작으로 화장품</tspan><tspan x="0" y="79.2" class="st2" style="font-family:'SpoqaHanSansNeo-Regular'; font-size:22px;">메뉴를 구성하였습니다.</tspan></text>
	<text transform="matrix(1 0 0 1 -1438.9972 1274.0139)"><tspan x="0" y="0" class="st2" style="font-family:'SpoqaHanSansNeo-Regular'; font-size:22px;">슬라이드 형식으로 </tspan><tspan x="0" y="26.4" class="st2" style="font-family:'SpoqaHanSansNeo-Regular'; font-size:22px;">사용자들이 베스트 셀러를</tspan><tspan x="0" y="52.8" class="st2" style="font-family:'SpoqaHanSansNeo-Regular'; font-size:22px;">한번해 볼 수 있도록 디자인</tspan><tspan x="0" y="79.2" class="st2" style="font-family:'SpoqaHanSansNeo-Regular'; font-size:22px;">하였습니다. 호버 했을경우</tspan><tspan x="0" y="105.6" class="st2" style="font-family:'SpoqaHanSansNeo-Regular'; font-size:22px;">장바구니, 좋아요 메뉴를 </tspan><tspan x="0" y="132" class="st2" style="font-family:'SpoqaHanSansNeo-Regular'; font-size:22px;">보여줌으로써 </tspan></text>
	<text transform="matrix(1 0 0 1 -1438.9967 2257.0007)"><tspan x="0" y="0" class="st2" style="font-family:'SpoqaHanSansNeo-Regular'; font-size:22px;">스킨솔루션에 대한</tspan><tspan x="0" y="26.4" class="st2" style="font-family:'SpoqaHanSansNeo-Regular'; font-size:22px;">내용을 구체화 시키고</tspan><tspan x="0" y="52.8" class="st2" style="font-family:'SpoqaHanSansNeo-Regular'; font-size:22px;">그에 대한 간략한 소개를</tspan><tspan x="0" y="79.2" class="st2" style="font-family:'SpoqaHanSansNeo-Regular'; font-size:22px;">바탕으로</tspan></text>
	<text transform="matrix(1 0 0 1 -1417.9103 3537.2734)"><tspan x="0" y="0" class="st2" style="font-family:'SpoqaHanSansNeo-Regular'; font-size:22px;">회사 정보및 기타 내용을 </tspan><tspan x="0" y="26.4" class="st2" style="font-family:'SpoqaHanSansNeo-Regular'; font-size:22px;">깔끔하고 한눈에 알아보기</tspan><tspan x="0" y="52.8" class="st2" style="font-family:'SpoqaHanSansNeo-Regular'; font-size:22px;">쉽게 배치하였습니다.</tspan></text>
	<text transform="matrix(1 0 0 1 -402.0435 3042.0986)"><tspan x="0" y="0" class="st2" style="font-family:'SpoqaHanSansNeo-Regular'; font-size:22px;">배너슬라이드를 자동으로</tspan><tspan x="0" y="26.4" class="st2" style="font-family:'SpoqaHanSansNeo-Regular'; font-size:22px;">넣어주어 광고의 </tspan></text>
	<polyline class="st1" points="-1264.6,104.7 -1264.6,48.7 -1092.5,48.7 	"/>
	<circle class="st2" cx="-1084.7" cy="48.7" r="7.8"/>
	<circle class="st2" cx="-425.5" cy="966.4" r="7.8"/>
	<circle class="st2" cx="-1194.6" cy="1281.8" r="7.8"/>
	<circle class="st2" cx="-1141.2" cy="1882" r="7.8"/>
	<circle class="st2" cx="-375.8" cy="3126.7" r="7.8"/>
	<circle class="st2" cx="-1148.9" cy="3019.2" r="7.8"/>
	<circle class="st2" cx="-1148.9" cy="3615" r="7.8"/>
	<polyline class="st1" points="-425.5,958.6 -425.5,721 -492.9,721 	"/>
	<path class="st1" d="M-1095.2,1296.5"/>
	<polyline class="st1" points="-1141.2,1882 -1213.6,1882 -1213.6,3019.2 -1153.2,3019.2 	"/>
	<polyline class="st1" points="-1194.6,1281.8 -1073.5,1281.8 -1073.5,1362.5 	"/>
	<polyline class="st1" points="-451.1,3360 -375.8,3360 -375.8,3126.7 	"/>
	<line class="st1" x1="-1156.7" y1="3615" x2="-1254.7" y2="3615"/>
</g>
</svg>
