<svg xmlns="http://www.w3.org/2000/svg" viewBox="0 0 426.13 847.31"><defs><style>.cls-1{fill:#e6e7e8;}</style></defs><g id="Layer_2" data-name="Layer 2"><g id="Layer_1-2" data-name="Layer 1"><path class="cls-1" d="M.34,423.92Q.34,255,.37,86c0-10.32-.44-20.72.76-30.93C4.94,22.79,26,2.74,60,1.06c30.61-1.51,61.34-1,92-1Q251.18,0,350.39.39a146,146,0,0,1,22.54,1.36c29.31,4.66,47.92,22.45,51.58,50.62,1.82,14,1.57,28.27,1.57,42.41q.1,329.25,0,658.48c0,12.71,0,25.48-1.14,38.13-3,33.08-25,53.3-59.88,55.38-12,.71-24.14.49-36.2.49-84.5,0-169,.22-253.5-.29-12.84-.08-26.5-1.45-38.33-5.82-26.51-9.81-35.95-31.48-36.57-57C-.19,758,0,731.78,0,705.61Q0,564.76,0,423.92Zm13.72,0h.06q0,37.83,0,75.65,0,139.43.15,278.83a84.34,84.34,0,0,0,2.2,20.68c5.75,22.3,22.71,34.46,48,34.72,24.64.25,49.3.1,73.95.1q110.91,0,221.84,0c26.95,0,44.55-12.82,49.87-36.32a98.18,98.18,0,0,0,2-21.45c.12-58.36,0-116.72,0-175.08q0-224.44,0-448.88c0-32.16-.31-64.33-1.28-96.48-.63-20.9-15.7-37.43-37.2-40-15.85-1.94-32-1.37-48.07-1.77-5.23-.14-6.58,3.15-6.94,7.55-1.26,15.48-9.75,23-25.77,23q-78.85,0-157.71,0c-18.39,0-25.48-6-27.49-23.29-.56-4.88-2.8-7.42-8.15-7.36-12.82.12-25.68-.38-38.47.25-23.83,1.19-39.92,13.6-44.78,34.8-1.8,7.87-2.14,16.18-2.14,24.3Q14,248.48,14.06,423.92Z"/></g></g></svg>