<svg xmlns="http://www.w3.org/2000/svg" xmlns:xlink="http://www.w3.org/1999/xlink" viewBox="0 0 1017.64 739.32"><defs><style>.cls-1{isolation:isolate;}.cls-2,.cls-42{fill:#fff;}.cls-3{fill:url(#linear-gradient);}.cls-4{fill:url(#radial-gradient);}.cls-5{fill:url(#radial-gradient-2);}.cls-6{fill:url(#radial-gradient-3);}.cls-7{fill:url(#radial-gradient-4);}.cls-8{fill:url(#radial-gradient-5);}.cls-9{fill:url(#radial-gradient-6);}.cls-10{fill:url(#radial-gradient-7);}.cls-11{fill:url(#radial-gradient-8);}.cls-12{fill:url(#radial-gradient-9);}.cls-13{fill:url(#radial-gradient-10);}.cls-14{fill:url(#radial-gradient-11);}.cls-15{fill:url(#radial-gradient-12);}.cls-16{fill:url(#radial-gradient-13);}.cls-17{fill:url(#radial-gradient-14);}.cls-18{fill:url(#radial-gradient-15);}.cls-19{fill:url(#radial-gradient-16);}.cls-20{fill:url(#radial-gradient-17);}.cls-21{fill:url(#radial-gradient-18);}.cls-22{fill:url(#radial-gradient-19);}.cls-23{fill:url(#radial-gradient-20);}.cls-24{fill:url(#radial-gradient-21);}.cls-25{fill:url(#radial-gradient-22);}.cls-26{fill:url(#radial-gradient-23);}.cls-27{fill:url(#radial-gradient-24);}.cls-28{fill:url(#radial-gradient-25);}.cls-29{fill:url(#radial-gradient-26);}.cls-30{fill:url(#radial-gradient-27);}.cls-31{fill:url(#radial-gradient-28);}.cls-32{fill:url(#radial-gradient-29);}.cls-33{fill:url(#radial-gradient-30);}.cls-34{fill:url(#radial-gradient-31);}.cls-35{fill:url(#radial-gradient-32);}.cls-36{fill:url(#radial-gradient-33);}.cls-37{fill:url(#radial-gradient-34);}.cls-38{fill:url(#radial-gradient-35);}.cls-39{fill:url(#radial-gradient-36);}.cls-40{fill:url(#linear-gradient-2);}.cls-41{mix-blend-mode:multiply;}.cls-42{opacity:0;}.cls-43{opacity:0.02;fill:url(#linear-gradient-3);}.cls-44{opacity:0.04;fill:url(#linear-gradient-4);}.cls-45{opacity:0.06;fill:url(#linear-gradient-5);}.cls-46{opacity:0.08;fill:url(#linear-gradient-6);}.cls-47{opacity:0.1;fill:url(#linear-gradient-7);}.cls-48{opacity:0.12;fill:url(#linear-gradient-8);}.cls-49{opacity:0.14;fill:url(#linear-gradient-9);}.cls-50{opacity:0.16;fill:url(#linear-gradient-10);}.cls-51{opacity:0.18;fill:url(#linear-gradient-11);}.cls-52{opacity:0.2;fill:url(#linear-gradient-12);}.cls-53{opacity:0.22;fill:url(#linear-gradient-13);}.cls-54{opacity:0.24;fill:url(#linear-gradient-14);}.cls-55{opacity:0.25;fill:url(#linear-gradient-15);}.cls-56{opacity:0.27;fill:url(#linear-gradient-16);}.cls-57{opacity:0.29;fill:url(#linear-gradient-17);}.cls-58{opacity:0.31;fill:url(#linear-gradient-18);}.cls-59{opacity:0.33;fill:url(#linear-gradient-19);}.cls-60{opacity:0.35;fill:url(#linear-gradient-20);}.cls-61{opacity:0.37;fill:url(#linear-gradient-21);}.cls-62{opacity:0.39;fill:url(#linear-gradient-22);}.cls-63{opacity:0.41;fill:url(#linear-gradient-23);}.cls-64{opacity:0.43;fill:url(#linear-gradient-24);}.cls-65{opacity:0.45;fill:url(#linear-gradient-25);}.cls-66{opacity:0.47;fill:url(#linear-gradient-26);}.cls-67{opacity:0.49;fill:url(#linear-gradient-27);}.cls-68{opacity:0.51;fill:url(#linear-gradient-28);}.cls-69{opacity:0.53;fill:url(#linear-gradient-29);}.cls-70{opacity:0.55;fill:url(#linear-gradient-30);}.cls-71{opacity:0.57;fill:url(#linear-gradient-31);}.cls-72{opacity:0.59;fill:url(#linear-gradient-32);}.cls-73{opacity:0.61;fill:url(#linear-gradient-33);}.cls-74{opacity:0.63;fill:url(#linear-gradient-34);}.cls-75{opacity:0.65;fill:url(#linear-gradient-35);}.cls-76{opacity:0.67;fill:url(#linear-gradient-36);}.cls-77{opacity:0.69;fill:url(#linear-gradient-37);}.cls-78{opacity:0.71;fill:url(#linear-gradient-38);}.cls-79{opacity:0.73;fill:url(#linear-gradient-39);}.cls-80{opacity:0.75;fill:url(#linear-gradient-40);}.cls-81{opacity:0.76;fill:url(#linear-gradient-41);}.cls-82{opacity:0.78;fill:url(#linear-gradient-42);}.cls-83{opacity:0.8;fill:url(#linear-gradient-43);}.cls-84{opacity:0.82;fill:url(#linear-gradient-44);}.cls-85{opacity:0.84;fill:url(#linear-gradient-45);}.cls-86{opacity:0.86;fill:url(#linear-gradient-46);}.cls-87{opacity:0.88;fill:url(#linear-gradient-47);}.cls-88{opacity:0.9;fill:url(#linear-gradient-48);}.cls-89{opacity:0.92;fill:url(#linear-gradient-49);}.cls-90{opacity:0.94;fill:url(#linear-gradient-50);}.cls-91{opacity:0.96;fill:url(#linear-gradient-51);}.cls-92{opacity:0.98;fill:url(#linear-gradient-52);}.cls-93{fill:url(#linear-gradient-53);}.cls-94{fill:url(#radial-gradient-37);}.cls-95{fill:#e6e6e6;}.cls-96{fill:url(#radial-gradient-38);}</style><linearGradient id="linear-gradient" x1="568.71" y1="439.66" x2="1121.25" y2="-59.09" gradientUnits="userSpaceOnUse"><stop offset="0" stop-color="#fff"/><stop offset="1" stop-color="#999"/></linearGradient><radialGradient id="radial-gradient" cx="900.16" cy="302.59" fy="327.2595471221405" r="265.77" gradientTransform="translate(-100.91 -8.67) scale(1.01 1)" gradientUnits="userSpaceOnUse"><stop offset="0" stop-color="#fff"/><stop offset="0.5" stop-color="#d2d4d5"/><stop offset="1" stop-color="#a9abad"/></radialGradient><radialGradient id="radial-gradient-2" cx="978.39" cy="314.88" fy="344.5099099932494" r="319.3" gradientTransform="translate(-201.81 -17.35) scale(1.03 0.99)" gradientUnits="userSpaceOnUse"><stop offset="0" stop-color="#fff"/><stop offset="0.5" stop-color="#d3d4d6"/><stop offset="1" stop-color="#aaadaf"/></radialGradient><radialGradient id="radial-gradient-3" cx="1054.72" cy="327.22" fy="361.81274965002683" r="372.78" gradientTransform="translate(-302.72 -26.02) scale(1.04 0.99)" gradientUnits="userSpaceOnUse"><stop offset="0" stop-color="#fff"/><stop offset="0.5" stop-color="#d4d5d7"/><stop offset="1" stop-color="#acaeb1"/></radialGradient><radialGradient id="radial-gradient-4" cx="1129.2" cy="339.61" fy="379.16444737205495" r="426.16" gradientTransform="translate(-403.62 -34.69) scale(1.05 0.99)" gradientUnits="userSpaceOnUse"><stop offset="0" stop-color="#fff"/><stop offset="0.5" stop-color="#d5d6d7"/><stop offset="1" stop-color="#aeb0b2"/></radialGradient><radialGradient id="radial-gradient-5" cx="1201.92" cy="352.07" fx="1194.9121893027668" fy="396.56145747747894" r="479.41" gradientTransform="translate(-504.53 -43.37) scale(1.07 0.98)" gradientUnits="userSpaceOnUse"><stop offset="0" stop-color="#fff"/><stop offset="0.5" stop-color="#d5d7d8"/><stop offset="1" stop-color="#b0b2b4"/></radialGradient><radialGradient id="radial-gradient-6" cx="1272.93" cy="364.58" fx="1265.1459471665391" fy="414.00032216050795" r="532.48" gradientTransform="translate(-605.43 -52.04) scale(1.08 0.98)" gradientUnits="userSpaceOnUse"><stop offset="0" stop-color="#fff"/><stop offset="0.5" stop-color="#d6d7d9"/><stop offset="1" stop-color="#b2b3b6"/></radialGradient><radialGradient id="radial-gradient-7" cx="1342.3" cy="377.16" fx="1333.7407827739162" fy="431.4776838249725" r="585.32" gradientTransform="translate(-706.34 -60.71) scale(1.09 0.97)" gradientUnits="userSpaceOnUse"><stop offset="0" stop-color="#fff"/><stop offset="0.5" stop-color="#d7d8da"/><stop offset="1" stop-color="#b3b5b7"/></radialGradient><radialGradient id="radial-gradient-8" cx="1410.08" cy="389.79" fx="1400.7569206313433" fy="448.99029564947904" r="637.9" gradientTransform="translate(-807.24 -69.39) scale(1.11 0.97)" gradientUnits="userSpaceOnUse"><stop offset="0" stop-color="#fff"/><stop offset="0.5" stop-color="#d8d9da"/><stop offset="1" stop-color="#b5b7b9"/></radialGradient><radialGradient id="radial-gradient-9" cx="1476.34" cy="402.48" fx="1466.2517293704097" fy="466.53503099712486" r="690.17" gradientTransform="translate(-908.15 -78.06) scale(1.12 0.97)" gradientUnits="userSpaceOnUse"><stop offset="0" stop-color="#fff"/><stop offset="0.5" stop-color="#d9dadb"/><stop offset="1" stop-color="#b7b9bb"/></radialGradient><radialGradient id="radial-gradient-10" cx="1541.13" cy="415.24" fx="1530.279892870616" fy="484.1088921887132" r="742.1" gradientTransform="translate(-1009.05 -86.73) scale(1.13 0.96)" gradientUnits="userSpaceOnUse"><stop offset="0" stop-color="#fff"/><stop offset="0.5" stop-color="#d9dbdc"/><stop offset="1" stop-color="#b9bbbc"/></radialGradient><radialGradient id="radial-gradient-11" cx="1604.49" cy="428.05" fx="1592.8935675564244" fy="501.7090191004451" r="793.65" gradientTransform="translate(-1109.96 -95.41) scale(1.15 0.96)" gradientUnits="userSpaceOnUse"><stop offset="0" stop-color="#fff"/><stop offset="0.5" stop-color="#dadbdd"/><stop offset="1" stop-color="#bbbcbe"/></radialGradient><radialGradient id="radial-gradient-12" cx="1666.49" cy="440.93" fx="1654.1425273428813" fy="519.3326980050576" r="844.77" gradientTransform="translate(-1210.86 -104.08) scale(1.16 0.96)" gradientUnits="userSpaceOnUse"><stop offset="0" stop-color="#fff"/><stop offset="0.5" stop-color="#dbdcdd"/><stop offset="1" stop-color="#bdbec0"/></radialGradient><radialGradient id="radial-gradient-13" cx="1727.16" cy="453.87" fx="1714.0742977011637" fy="536.9773709884538" r="895.45" gradientTransform="translate(-1311.77 -112.75) scale(1.18 0.95)" gradientUnits="userSpaceOnUse"><stop offset="0" stop-color="#fff"/><stop offset="0.5" stop-color="#dcddde"/><stop offset="1" stop-color="#bfc0c2"/></radialGradient><radialGradient id="radial-gradient-14" cx="1786.55" cy="466.88" fx="1772.7342801860536" fy="554.6406460330498" r="945.63" gradientTransform="translate(-1412.67 -121.43) scale(1.19 0.95)" gradientUnits="userSpaceOnUse"><stop offset="0" stop-color="#fff"/><stop offset="0.5" stop-color="#dddedf"/><stop offset="1" stop-color="#c1c2c3"/></radialGradient><radialGradient id="radial-gradient-15" cx="1844.71" cy="479.95" fx="1830.1658685545233" fy="572.3203072897161" r="995.29" gradientTransform="translate(-1513.58 -130.1) scale(1.2 0.94)" gradientUnits="userSpaceOnUse"><stop offset="0" stop-color="#fff"/><stop offset="0.5" stop-color="#dedfe0"/><stop offset="1" stop-color="#c2c4c5"/></radialGradient><radialGradient id="radial-gradient-16" cx="1901.67" cy="493.09" fx="1886.4105573478353" fy="590.0143239448628" r="1044.39" gradientTransform="translate(-1614.48 -138.77) scale(1.22 0.94)" gradientUnits="userSpaceOnUse"><stop offset="0" stop-color="#fff"/><stop offset="0.5" stop-color="#dedfe0"/><stop offset="1" stop-color="#c4c5c7"/></radialGradient><radialGradient id="radial-gradient-17" cx="1957.48" cy="506.29" fx="1941.5080435346242" fy="607.7208543458842" r="1092.9" gradientTransform="translate(-1715.39 -147.45) scale(1.23 0.94)" gradientUnits="userSpaceOnUse"><stop offset="0" stop-color="#fff"/><stop offset="0.5" stop-color="#dfe0e1"/><stop offset="1" stop-color="#c6c7c9"/></radialGradient><radialGradient id="radial-gradient-18" cx="2012.17" cy="519.57" fx="1995.4963215516682" fy="625.4382402573672" r="1140.79" gradientTransform="translate(-1816.29 -156.12) scale(1.24 0.93)" gradientUnits="userSpaceOnUse"><stop offset="0" stop-color="#fff"/><stop offset="0.5" stop-color="#e0e1e2"/><stop offset="1" stop-color="#c8c9ca"/></radialGradient><radialGradient id="radial-gradient-19" cx="2065.78" cy="532.91" fx="2048.4117719195624" fy="643.1649862694027" r="1188.03" gradientTransform="translate(-1917.2 -164.79) scale(1.26 0.93)" gradientUnits="userSpaceOnUse"><stop offset="0" stop-color="#fff"/><stop offset="0.5" stop-color="#e1e2e3"/><stop offset="1" stop-color="#cacbcc"/></radialGradient><radialGradient id="radial-gradient-20" cx="2118.33" cy="546.32" fx="2100.2892436980223" fy="660.8997242521552" r="1234.6" gradientTransform="translate(-2018.1 -173.47) scale(1.27 0.93)" gradientUnits="userSpaceOnUse"><stop offset="0" stop-color="#fff"/><stop offset="0.5" stop-color="#e2e3e4"/><stop offset="1" stop-color="#cbccce"/></radialGradient><radialGradient id="radial-gradient-21" cx="2169.88" cy="559.81" fx="2151.162131411929" fy="678.6411718053256" r="1280.45" gradientTransform="translate(-2119.01 -182.14) scale(1.28 0.92)" gradientUnits="userSpaceOnUse"><stop offset="0" stop-color="#fff"/><stop offset="0.5" stop-color="#e3e4e4"/><stop offset="1" stop-color="#cdcecf"/></radialGradient><radialGradient id="radial-gradient-22" cx="2220.44" cy="573.37" fx="2201.062447417143" fy="696.3880993473488" r="1325.57" gradientTransform="translate(-2219.91 -190.81) scale(1.3 0.92)" gradientUnits="userSpaceOnUse"><stop offset="0" stop-color="#fff"/><stop offset="0.5" stop-color="#e4e4e5"/><stop offset="1" stop-color="#cfd0d1"/></radialGradient><radialGradient id="radial-gradient-23" cx="2270.04" cy="587" fx="2250.020890571675" fy="714.1393155159979" r="1369.92" gradientTransform="translate(-2320.82 -199.49) scale(1.31 0.91)" gradientUnits="userSpaceOnUse"><stop offset="0" stop-color="#fff"/><stop offset="0.5" stop-color="#e5e5e6"/><stop offset="1" stop-color="#d1d2d3"/></radialGradient><radialGradient id="radial-gradient-24" cx="2318.73" cy="600.71" fx="2298.066911601722" fy="731.8936693885947" r="1413.5" gradientTransform="translate(-2421.72 -208.16) scale(1.32 0.91)" gradientUnits="userSpaceOnUse"><stop offset="0" stop-color="#fff"/><stop offset="0.5" stop-color="#e5e6e7"/><stop offset="1" stop-color="#d3d3d4"/></radialGradient><radialGradient id="radial-gradient-25" cx="2366.51" cy="614.5" fx="2345.228775166892" fy="749.6500613753184" r="1456.26" gradientTransform="translate(-2522.63 -216.83) scale(1.34 0.91)" gradientUnits="userSpaceOnUse"><stop offset="0" stop-color="#fff"/><stop offset="0.5" stop-color="#e6e7e8"/><stop offset="1" stop-color="#d4d5d6"/></radialGradient><radialGradient id="radial-gradient-26" cx="2413.43" cy="628.37" fx="2391.5336185555666" fy="767.4074554054116" r="1498.19" gradientTransform="translate(-2623.53 -225.51) scale(1.35 0.9)" gradientUnits="userSpaceOnUse"><stop offset="0" stop-color="#fff"/><stop offset="0.5" stop-color="#e7e8e8"/><stop offset="1" stop-color="#d6d7d7"/></radialGradient><radialGradient id="radial-gradient-27" cx="2459.5" cy="642.31" fx="2437.007507042278" fy="785.1648887340039" r="1539.26" gradientTransform="translate(-2724.44 -234.18) scale(1.36 0.9)" gradientUnits="userSpaceOnUse"><stop offset="0" stop-color="#fff"/><stop offset="0.5" stop-color="#e8e9e9"/><stop offset="1" stop-color="#d8d8d9"/></radialGradient><radialGradient id="radial-gradient-28" cx="2504.76" cy="656.34" fx="2481.6754860427905" fy="802.9214785478989" r="1579.46" gradientTransform="translate(-2825.34 -242.85) scale(1.38 0.9)" gradientUnits="userSpaceOnUse"><stop offset="0" stop-color="#fff"/><stop offset="0.5" stop-color="#e9e9ea"/><stop offset="1" stop-color="#dadadb"/></radialGradient><radialGradient id="radial-gradient-29" cx="2549.22" cy="670.45" fx="2525.561630253915" fy="820.67642581689" r="1618.76" gradientTransform="translate(-2926.25 -251.53) scale(1.39 0.89)" gradientUnits="userSpaceOnUse"><stop offset="0" stop-color="#fff"/><stop offset="0.5" stop-color="#eaeaeb"/><stop offset="1" stop-color="#dbdcdc"/></radialGradient><radialGradient id="radial-gradient-30" cx="2592.91" cy="684.63" fx="2568.6890899760706" fy="838.4290171304451" r="1657.15" gradientTransform="translate(-3027.15 -260.2) scale(1.4 0.89)" gradientUnits="userSpaceOnUse"><stop offset="0" stop-color="#fff"/><stop offset="0.5" stop-color="#ebebec"/><stop offset="1" stop-color="#ddddde"/></radialGradient><radialGradient id="radial-gradient-31" cx="2635.85" cy="698.91" fx="2611.080134808734" fy="856.1786251712342" r="1694.61" gradientTransform="translate(-3128.06 -268.87) scale(1.42 0.89)" gradientUnits="userSpaceOnUse"><stop offset="0" stop-color="#fff"/><stop offset="0.5" stop-color="#ececec"/><stop offset="1" stop-color="#dfdfdf"/></radialGradient><radialGradient id="radial-gradient-32" cx="2678.06" cy="713.27" fx="2652.7561948950247" fy="873.9247083045329" r="1731.12" gradientTransform="translate(-3228.96 -277.55) scale(1.43 0.88)" gradientUnits="userSpaceOnUse"><stop offset="0" stop-color="#fff"/><stop offset="0.5" stop-color="#ededed"/><stop offset="1" stop-color="#e0e1e1"/></radialGradient><radialGradient id="radial-gradient-33" cx="2719.56" cy="727.71" fx="2693.737899877271" fy="891.6668096099907" r="1766.66" gradientTransform="translate(-3329.87 -286.22) scale(1.44 0.88)" gradientUnits="userSpaceOnUse"><stop offset="0" stop-color="#fff"/><stop offset="0.5" stop-color="#eee"/><stop offset="1" stop-color="#e2e2e3"/></radialGradient><radialGradient id="radial-gradient-34" cx="2760.37" cy="742.24" fx="2734.0451157121943" fy="909.4045555713793" r="1801.22" gradientTransform="translate(-3430.77 -294.89) scale(1.46 0.87)" gradientUnits="userSpaceOnUse"><stop offset="0" stop-color="#fff"/><stop offset="0.5" stop-color="#efeff0"/><stop offset="1" stop-color="#e4e4e4"/></radialGradient><radialGradient id="radial-gradient-35" cx="2800.51" cy="756.86" fx="2773.6969794825486" fy="927.1376545645635" r="1834.79" gradientTransform="translate(-3531.68 -303.57) scale(1.47 0.87)" gradientUnits="userSpaceOnUse"><stop offset="0" stop-color="#fff"/><stop offset="0.5" stop-color="#f1f1f1"/><stop offset="1" stop-color="#e6e6e7"/></radialGradient><radialGradient id="radial-gradient-36" cx="2840" cy="771.56" fx="2812.711932636975" fy="944.8658953748647" r="1867.34" gradientTransform="translate(-3632.58 -312.24) scale(1.49 0.87)" gradientUnits="userSpaceOnUse"><stop offset="0" stop-color="#fff"/><stop offset="0.5" stop-color="#f3f3f3"/><stop offset="1" stop-color="#eaeaea"/></radialGradient><linearGradient id="linear-gradient-2" x1="897.07" y1="152.06" x2="319.2" y2="640.46" gradientUnits="userSpaceOnUse"><stop offset="0.39" stop-color="#fff"/><stop offset="0.99" stop-color="#f3f3f3"/></linearGradient><linearGradient id="linear-gradient-3" x1="1.22" y1="628.29" x2="809.58" y2="-132.16" gradientTransform="translate(8.31 -112.61) rotate(0.78) scale(0.99)" gradientUnits="userSpaceOnUse"><stop offset="0" stop-color="#fdfdfc"/><stop offset="0.94" stop-color="#f5f5f4"/></linearGradient><linearGradient id="linear-gradient-4" x1="8.05" y1="737.49" x2="806.33" y2="-13.49" gradientTransform="matrix(0.99, 0.03, -0.03, 0.99, 16.63, -225.21)" gradientUnits="userSpaceOnUse"><stop offset="0" stop-color="#fbfafa"/><stop offset="0.23" stop-color="#f7f6f6"/><stop offset="0.94" stop-color="#eeeded"/></linearGradient><linearGradient id="linear-gradient-5" x1="18.13" y1="847.61" x2="805.96" y2="106.46" gradientTransform="translate(24.94 -337.82) rotate(2.36) scale(0.98)" gradientUnits="userSpaceOnUse"><stop offset="0" stop-color="#f9f8f8"/><stop offset="0.36" stop-color="#f1f0f0"/><stop offset="0.94" stop-color="#e9e7e7"/></linearGradient><linearGradient id="linear-gradient-6" x1="31.55" y1="958.53" x2="808.55" y2="227.58" gradientTransform="matrix(0.98, 0.05, -0.05, 0.98, 33.25, -450.43)" gradientUnits="userSpaceOnUse"><stop offset="0" stop-color="#f7f7f6"/><stop offset="0.46" stop-color="#ebeae9"/><stop offset="0.94" stop-color="#e3e1e1"/></linearGradient><linearGradient id="linear-gradient-7" x1="48.39" y1="1070.14" x2="814.18" y2="349.73" gradientTransform="translate(41.56 -563.03) rotate(3.97) scale(0.98)" gradientUnits="userSpaceOnUse"><stop offset="0" stop-color="#f6f5f5"/><stop offset="0.5" stop-color="#e6e5e5"/><stop offset="0.94" stop-color="#dedcdc"/></linearGradient><linearGradient id="linear-gradient-8" x1="68.72" y1="1182.3" x2="822.94" y2="472.78" gradientTransform="translate(49.88 -675.64) rotate(4.79) scale(0.97)" gradientUnits="userSpaceOnUse"><stop offset="0" stop-color="#f5f4f3"/><stop offset="0.54" stop-color="#e2e0df"/><stop offset="0.94" stop-color="#d9d7d6"/></linearGradient><linearGradient id="linear-gradient-9" x1="93.19" y1="1295.5" x2="835.47" y2="597.2" gradientTransform="translate(58.19 -788.24) rotate(5.61) scale(0.97)" gradientUnits="userSpaceOnUse"><stop offset="0" stop-color="#f3f2f2"/><stop offset="0" stop-color="#f3f2f2"/><stop offset="0.58" stop-color="#dcdbda"/><stop offset="0.94" stop-color="#d4d2d1"/></linearGradient><linearGradient id="linear-gradient-10" x1="122.13" y1="1409.87" x2="852.12" y2="723.14" gradientTransform="translate(66.5 -900.85) rotate(6.45) scale(0.96)" gradientUnits="userSpaceOnUse"><stop offset="0" stop-color="#f2f1f1"/><stop offset="0.08" stop-color="#eeeded"/><stop offset="0.61" stop-color="#d7d6d5"/><stop offset="0.94" stop-color="#cfcdcc"/></linearGradient><linearGradient id="linear-gradient-11" x1="154.75" y1="1524.37" x2="872.1" y2="849.53" gradientTransform="translate(74.81 -1013.46) rotate(7.28) scale(0.96)" gradientUnits="userSpaceOnUse"><stop offset="0" stop-color="#f1f0ef"/><stop offset="0.13" stop-color="#eae9e8"/><stop offset="0.63" stop-color="#d3d1d1"/><stop offset="0.94" stop-color="#cbc8c8"/></linearGradient><linearGradient id="linear-gradient-12" x1="191.09" y1="1638.86" x2="895.46" y2="976.22" gradientTransform="matrix(0.95, 0.14, -0.14, 0.95, 83.13, -1126.06)" gradientUnits="userSpaceOnUse"><stop offset="0" stop-color="#f0efee"/><stop offset="0.18" stop-color="#e5e4e3"/><stop offset="0.65" stop-color="#cecccc"/><stop offset="0.94" stop-color="#c6c3c3"/></linearGradient><linearGradient id="linear-gradient-13" x1="231.18" y1="1753.15" x2="922.25" y2="1103.03" gradientTransform="matrix(0.94, 0.15, -0.15, 0.94, 91.44, -1238.67)" gradientUnits="userSpaceOnUse"><stop offset="0" stop-color="#eeeded"/><stop offset="0.22" stop-color="#e0dfdf"/><stop offset="0.66" stop-color="#c9c7c7"/><stop offset="0.94" stop-color="#c1bebe"/></linearGradient><linearGradient id="linear-gradient-14" x1="275.03" y1="1867.09" x2="952.51" y2="1229.77" gradientTransform="matrix(0.94, 0.16, -0.16, 0.94, 99.75, -1351.28)" gradientUnits="userSpaceOnUse"><stop offset="0" stop-color="#edecec"/><stop offset="0.25" stop-color="#dcdbdb"/><stop offset="0.67" stop-color="#c5c3c3"/><stop offset="0.94" stop-color="#bdbaba"/></linearGradient><linearGradient id="linear-gradient-15" x1="322.66" y1="1980.5" x2="986.27" y2="1356.22" gradientTransform="matrix(0.93, 0.18, -0.18, 0.93, 108.07, -1463.88)" gradientUnits="userSpaceOnUse"><stop offset="0" stop-color="#ecebea"/><stop offset="0.29" stop-color="#d8d6d5"/><stop offset="0.69" stop-color="#c1bebe"/><stop offset="0.94" stop-color="#b9b5b5"/></linearGradient><linearGradient id="linear-gradient-16" x1="374.07" y1="2093.21" x2="1023.56" y2="1482.21" gradientTransform="translate(116.38 -1576.49) rotate(11.57) scale(0.94)" gradientUnits="userSpaceOnUse"><stop offset="0" stop-color="#ebeae9"/><stop offset="0.31" stop-color="#d4d2d1"/><stop offset="0.7" stop-color="#bdbaba"/><stop offset="0.94" stop-color="#b5b1b1"/></linearGradient><linearGradient id="linear-gradient-17" x1="429.25" y1="2205.04" x2="1064.37" y2="1607.55" gradientTransform="translate(124.69 -1689.09) rotate(12.44) scale(0.94)" gradientUnits="userSpaceOnUse"><stop offset="0" stop-color="#eae8e8"/><stop offset="0.34" stop-color="#d0cdcd"/><stop offset="0.71" stop-color="#b9b6b5"/><stop offset="0.94" stop-color="#b0adac"/></linearGradient><linearGradient id="linear-gradient-18" x1="488.16" y1="2315.81" x2="1108.7" y2="1732.05" gradientTransform="translate(133 -1801.7) rotate(13.32) scale(0.94)" gradientUnits="userSpaceOnUse"><stop offset="0" stop-color="#e8e7e7"/><stop offset="0.36" stop-color="#cbc9c9"/><stop offset="0.71" stop-color="#b4b1b1"/><stop offset="0.94" stop-color="#aca8a8"/></linearGradient><linearGradient id="linear-gradient-19" x1="550.78" y1="2425.36" x2="1156.53" y2="1855.52" gradientTransform="translate(141.32 -1914.31) rotate(14.2) scale(0.94)" gradientUnits="userSpaceOnUse"><stop offset="0" stop-color="#e7e6e6"/><stop offset="0.37" stop-color="#c7c5c5"/><stop offset="0.72" stop-color="#b0adad"/><stop offset="0.94" stop-color="#a8a4a4"/></linearGradient><linearGradient id="linear-gradient-20" x1="617.05" y1="2533.49" x2="1207.81" y2="1977.74" gradientTransform="matrix(0.9, 0.24, -0.24, 0.9, 149.63, -2026.91)" gradientUnits="userSpaceOnUse"><stop offset="0" stop-color="#e6e5e4"/><stop offset="0.39" stop-color="#c3c1c0"/><stop offset="0.73" stop-color="#aca9a9"/><stop offset="0.94" stop-color="#a4a0a0"/></linearGradient><linearGradient id="linear-gradient-21" x1="686.92" y1="2640.04" x2="1262.53" y2="2098.54" gradientTransform="matrix(0.9, 0.26, -0.26, 0.9, 157.94, -2139.52)" gradientUnits="userSpaceOnUse"><stop offset="0" stop-color="#e5e4e3"/><stop offset="0" stop-color="#e5e4e3"/><stop offset="0.41" stop-color="#bfbdbc"/><stop offset="0.73" stop-color="#a8a5a5"/><stop offset="0.94" stop-color="#a09c9c"/></linearGradient><linearGradient id="linear-gradient-22" x1="760.31" y1="2744.82" x2="1320.62" y2="2217.71" gradientTransform="translate(166.26 -2252.13) rotate(16.86) scale(0.93)" gradientUnits="userSpaceOnUse"><stop offset="0" stop-color="#e4e2e2"/><stop offset="0.02" stop-color="#e2e0e0"/><stop offset="0.42" stop-color="#bcb9b9"/><stop offset="0.74" stop-color="#a5a1a1"/><stop offset="0.94" stop-color="#9c9898"/></linearGradient><linearGradient id="linear-gradient-23" x1="837.13" y1="2847.67" x2="1382.03" y2="2335.05" gradientTransform="translate(174.57 -2364.73) rotate(17.75) scale(0.93)" gradientUnits="userSpaceOnUse"><stop offset="0" stop-color="#e2e1e1"/><stop offset="0.05" stop-color="#dddcdc"/><stop offset="0.43" stop-color="#b8b5b5"/><stop offset="0.74" stop-color="#a09d9d"/><stop offset="0.94" stop-color="#989494"/></linearGradient><linearGradient id="linear-gradient-24" x1="917.29" y1="2948.42" x2="1446.69" y2="2450.38" gradientTransform="matrix(0.88, 0.3, -0.3, 0.88, 182.88, -2477.34)" gradientUnits="userSpaceOnUse"><stop offset="0" stop-color="#e1e0e0"/><stop offset="0.07" stop-color="#d9d8d8"/><stop offset="0.45" stop-color="#b4b1b1"/><stop offset="0.75" stop-color="#9d9999"/><stop offset="0.94" stop-color="#949090"/></linearGradient><linearGradient id="linear-gradient-25" x1="1000.68" y1="3046.9" x2="1514.52" y2="2563.51" gradientTransform="matrix(0.88, 0.31, -0.31, 0.88, 191.19, -2589.94)" gradientUnits="userSpaceOnUse"><stop offset="0" stop-color="#e0dfdf"/><stop offset="0.09" stop-color="#d5d4d4"/><stop offset="0.46" stop-color="#b0adad"/><stop offset="0.75" stop-color="#999595"/><stop offset="0.94" stop-color="#918c8c"/></linearGradient><linearGradient id="linear-gradient-26" x1="1087.19" y1="3142.96" x2="1585.43" y2="2674.25" gradientTransform="translate(199.51 -2702.55) rotate(20.44) scale(0.93)" gradientUnits="userSpaceOnUse"><stop offset="0" stop-color="#dfdede"/><stop offset="0.12" stop-color="#d1d0d0"/><stop offset="0.47" stop-color="#aca9a9"/><stop offset="0.76" stop-color="#959291"/><stop offset="0.94" stop-color="#8d8988"/></linearGradient><linearGradient id="linear-gradient-27" x1="1176.67" y1="3236.45" x2="1659.32" y2="2782.4" gradientTransform="matrix(0.86, 0.34, -0.34, 0.86, 207.82, -2815.16)" gradientUnits="userSpaceOnUse"><stop offset="0" stop-color="#dedddc"/><stop offset="0.13" stop-color="#cecdcc"/><stop offset="0.48" stop-color="#a9a6a6"/><stop offset="0.76" stop-color="#928e8e"/><stop offset="0.94" stop-color="#898585"/></linearGradient><linearGradient id="linear-gradient-28" x1="1268.99" y1="3327.23" x2="1736.09" y2="2887.81" gradientTransform="translate(216.13 -2927.76) rotate(22.23) scale(0.93)" gradientUnits="userSpaceOnUse"><stop offset="0" stop-color="#dddcdb"/><stop offset="0.15" stop-color="#cbc9c8"/><stop offset="0.49" stop-color="#a5a2a2"/><stop offset="0.77" stop-color="#8e8a8a"/><stop offset="0.94" stop-color="#868181"/></linearGradient><linearGradient id="linear-gradient-29" x1="1363.99" y1="3415.17" x2="1815.63" y2="2990.3" gradientTransform="translate(224.44 -3040.37) rotate(23.13) scale(0.93)" gradientUnits="userSpaceOnUse"><stop offset="0" stop-color="#dbdada"/><stop offset="0.16" stop-color="#c7c5c5"/><stop offset="0.5" stop-color="#a19f9e"/><stop offset="0.77" stop-color="#8a8786"/><stop offset="0.94" stop-color="#827e7d"/></linearGradient><linearGradient id="linear-gradient-30" x1="1461.52" y1="3500.15" x2="1897.83" y2="3089.69" gradientTransform="translate(232.76 -3152.98) rotate(24.03) scale(0.93)" gradientUnits="userSpaceOnUse"><stop offset="0" stop-color="#dad9d9"/><stop offset="0.17" stop-color="#c4c2c2"/><stop offset="0.51" stop-color="#9e9b9b"/><stop offset="0.77" stop-color="#878383"/><stop offset="0.94" stop-color="#7e7a7a"/></linearGradient><linearGradient id="linear-gradient-31" x1="1561.39" y1="3582.06" x2="1982.56" y2="3185.84" gradientTransform="matrix(0.84, 0.39, -0.39, 0.84, 241.07, -3265.58)" gradientUnits="userSpaceOnUse"><stop offset="0" stop-color="#d9d8d8"/><stop offset="0.19" stop-color="#c0bebe"/><stop offset="0.52" stop-color="#9b9897"/><stop offset="0.78" stop-color="#83807f"/><stop offset="0.94" stop-color="#7b7776"/></linearGradient><linearGradient id="linear-gradient-32" x1="1663.43" y1="3660.82" x2="2069.72" y2="3278.6" gradientTransform="translate(249.38 -3378.19) rotate(25.82) scale(0.93)" gradientUnits="userSpaceOnUse"><stop offset="0" stop-color="#d8d7d7"/><stop offset="0.2" stop-color="#bdbbbb"/><stop offset="0.52" stop-color="#979494"/><stop offset="0.78" stop-color="#807c7c"/><stop offset="0.94" stop-color="#777373"/></linearGradient><linearGradient id="linear-gradient-33" x1="1767.45" y1="3736.35" x2="2159.2" y2="3367.82" gradientTransform="translate(257.7 -3490.79) rotate(26.71) scale(0.93)" gradientUnits="userSpaceOnUse"><stop offset="0" stop-color="#d7d6d6"/><stop offset="0.21" stop-color="#bab8b8"/><stop offset="0.53" stop-color="#949191"/><stop offset="0.78" stop-color="#7d7979"/><stop offset="0.94" stop-color="#747070"/></linearGradient><linearGradient id="linear-gradient-34" x1="1873.24" y1="3808.62" x2="2250.88" y2="3453.35" gradientTransform="translate(266.01 -3603.4) rotate(27.6) scale(0.93)" gradientUnits="userSpaceOnUse"><stop offset="0" stop-color="#d6d5d4"/><stop offset="0.22" stop-color="#b7b5b4"/><stop offset="0.53" stop-color="#918e8d"/><stop offset="0.78" stop-color="#7a7675"/><stop offset="0.94" stop-color="#716d6c"/></linearGradient><linearGradient id="linear-gradient-35" x1="1980.45" y1="3877.71" x2="2344.8" y2="3534.96" gradientTransform="translate(274.32 -3716.01) rotate(28.49) scale(0.94)" gradientUnits="userSpaceOnUse"><stop offset="0" stop-color="#d5d4d3"/><stop offset="0.23" stop-color="#b4b2b1"/><stop offset="0.54" stop-color="#8e8b8a"/><stop offset="0.78" stop-color="#777372"/><stop offset="0.94" stop-color="#6e6a69"/></linearGradient><linearGradient id="linear-gradient-36" x1="2089.37" y1="3943.17" x2="2443.66" y2="3609.87" gradientTransform="translate(282.63 -3828.61) rotate(29.37) scale(0.94)" gradientUnits="userSpaceOnUse"><stop offset="0" stop-color="#d4d3d2"/><stop offset="0.24" stop-color="#b0afae"/><stop offset="0.54" stop-color="#8a8887"/><stop offset="0.79" stop-color="#73706f"/><stop offset="0.94" stop-color="#6a6766"/></linearGradient><linearGradient id="linear-gradient-37" x1="2199.92" y1="4004.83" x2="2546.41" y2="3678.87" gradientTransform="translate(290.95 -3941.22) rotate(30.25) scale(0.94)" gradientUnits="userSpaceOnUse"><stop offset="0" stop-color="#d3d2d1"/><stop offset="0.25" stop-color="#aeacab"/><stop offset="0.55" stop-color="#878584"/><stop offset="0.79" stop-color="#706d6c"/><stop offset="0.94" stop-color="#676463"/></linearGradient><linearGradient id="linear-gradient-38" x1="2311.76" y1="4062.83" x2="2650.52" y2="3744.15" gradientTransform="matrix(0.81, 0.49, -0.49, 0.81, 299.26, -4053.83)" gradientUnits="userSpaceOnUse"><stop offset="0" stop-color="#d1d1d0"/><stop offset="0.26" stop-color="#aaa9a8"/><stop offset="0.55" stop-color="#848281"/><stop offset="0.79" stop-color="#6d6a69"/><stop offset="0.94" stop-color="#646160"/></linearGradient><linearGradient id="linear-gradient-39" x1="2424.74" y1="4117.14" x2="2755.84" y2="3805.66" gradientTransform="translate(307.57 -4166.43) rotate(32) scale(0.94)" gradientUnits="userSpaceOnUse"><stop offset="0" stop-color="#d0cfcf"/><stop offset="0.27" stop-color="#a7a5a5"/><stop offset="0.56" stop-color="#817f7e"/><stop offset="0.79" stop-color="#6a6766"/><stop offset="0.94" stop-color="#615e5d"/></linearGradient><linearGradient id="linear-gradient-40" x1="2538.66" y1="4167.76" x2="2862.17" y2="3863.42" gradientTransform="translate(315.89 -4279.04) rotate(32.87) scale(0.95)" gradientUnits="userSpaceOnUse"><stop offset="0" stop-color="#cfcece"/><stop offset="0.28" stop-color="#a4a2a2"/><stop offset="0.56" stop-color="#7e7c7b"/><stop offset="0.79" stop-color="#676463"/><stop offset="0.94" stop-color="#5e5b5a"/></linearGradient><linearGradient id="linear-gradient-41" x1="2653.36" y1="4214.69" x2="2969.26" y2="3917.5" gradientTransform="translate(324.2 -4391.64) rotate(33.73) scale(0.95)" gradientUnits="userSpaceOnUse"><stop offset="0" stop-color="#cecdcd"/><stop offset="0.28" stop-color="#a19f9f"/><stop offset="0.57" stop-color="#7b7978"/><stop offset="0.8" stop-color="#646160"/><stop offset="0.94" stop-color="#5b5857"/></linearGradient><linearGradient id="linear-gradient-42" x1="2768.65" y1="4257.94" x2="3076.97" y2="3967.9" gradientTransform="matrix(0.78, 0.54, -0.54, 0.78, 332.51, -4504.25)" gradientUnits="userSpaceOnUse"><stop offset="0" stop-color="#cdcccc"/><stop offset="0.29" stop-color="#9f9d9d"/><stop offset="0.57" stop-color="#787676"/><stop offset="0.8" stop-color="#615e5e"/><stop offset="0.94" stop-color="#585555"/></linearGradient><linearGradient id="linear-gradient-43" x1="2884.36" y1="4297.55" x2="3185.14" y2="4014.6" gradientTransform="translate(340.82 -4616.86) rotate(35.44) scale(0.96)" gradientUnits="userSpaceOnUse"><stop offset="0" stop-color="#cccbcb"/><stop offset="0.3" stop-color="#9c9b9a"/><stop offset="0.58" stop-color="#757473"/><stop offset="0.8" stop-color="#5e5c5b"/><stop offset="0.94" stop-color="#555352"/></linearGradient><linearGradient id="linear-gradient-44" x1="3000.33" y1="4333.53" x2="3293.62" y2="4057.62" gradientTransform="matrix(0.77, 0.57, -0.57, 0.77, 349.14, -4729.46)" gradientUnits="userSpaceOnUse"><stop offset="0" stop-color="#cbcaca"/><stop offset="0.3" stop-color="#999897"/><stop offset="0.58" stop-color="#737170"/><stop offset="0.8" stop-color="#5c5958"/><stop offset="0.94" stop-color="#53504f"/></linearGradient><linearGradient id="linear-gradient-45" x1="3116.38" y1="4365.94" x2="3402.29" y2="4096.97" gradientTransform="matrix(0.77, 0.58, -0.58, 0.77, 357.45, -4842.07)" gradientUnits="userSpaceOnUse"><stop offset="0" stop-color="#cac9c9"/><stop offset="0.31" stop-color="#979695"/><stop offset="0.58" stop-color="#706f6e"/><stop offset="0.8" stop-color="#595756"/><stop offset="0.94" stop-color="#504e4d"/></linearGradient><linearGradient id="linear-gradient-46" x1="3232.35" y1="4394.82" x2="3510.99" y2="4132.69" gradientTransform="translate(365.76 -4954.68) rotate(37.95) scale(0.97)" gradientUnits="userSpaceOnUse"><stop offset="0" stop-color="#c9c8c8"/><stop offset="0.31" stop-color="#949392"/><stop offset="0.59" stop-color="#6d6c6b"/><stop offset="0.8" stop-color="#565453"/><stop offset="0.94" stop-color="#4d4b4a"/></linearGradient><linearGradient id="linear-gradient-47" x1="3348.08" y1="4420.22" x2="3619.6" y2="4164.79" gradientTransform="translate(374.07 -5067.28) rotate(38.78) scale(0.97)" gradientUnits="userSpaceOnUse"><stop offset="0" stop-color="#c8c7c7"/><stop offset="0.01" stop-color="#c7c6c6"/><stop offset="0.32" stop-color="#929190"/><stop offset="0.59" stop-color="#6b6a69"/><stop offset="0.8" stop-color="#535251"/><stop offset="0.94" stop-color="#4a4948"/></linearGradient><linearGradient id="linear-gradient-48" x1="3463.45" y1="4442.19" x2="3727.99" y2="4193.33" gradientTransform="translate(382.39 -5179.89) rotate(39.59) scale(0.98)" gradientUnits="userSpaceOnUse"><stop offset="0" stop-color="#c7c6c6"/><stop offset="0.01" stop-color="#c5c4c4"/><stop offset="0.32" stop-color="#908e8e"/><stop offset="0.59" stop-color="#696767"/><stop offset="0.8" stop-color="#514f4f"/><stop offset="0.94" stop-color="#484646"/></linearGradient><linearGradient id="linear-gradient-49" x1="3578.3" y1="4460.8" x2="3836.03" y2="4218.35" gradientTransform="translate(390.7 -5292.49) rotate(40.4) scale(0.98)" gradientUnits="userSpaceOnUse"><stop offset="0" stop-color="#c6c5c5"/><stop offset="0.02" stop-color="#c2c1c1"/><stop offset="0.33" stop-color="#8d8c8b"/><stop offset="0.59" stop-color="#666564"/><stop offset="0.81" stop-color="#4e4d4c"/><stop offset="0.94" stop-color="#454443"/></linearGradient><linearGradient id="linear-gradient-50" x1="3692.51" y1="4476.11" x2="3943.64" y2="4239.87" gradientTransform="translate(399.01 -5405.1) rotate(41.21) scale(0.98)" gradientUnits="userSpaceOnUse"><stop offset="0" stop-color="#c5c4c4"/><stop offset="0.03" stop-color="#c0bfbf"/><stop offset="0.33" stop-color="#8a8989"/><stop offset="0.6" stop-color="#636262"/><stop offset="0.81" stop-color="#4b4a4a"/><stop offset="0.94" stop-color="#424141"/></linearGradient><linearGradient id="linear-gradient-51" x1="3806.02" y1="4488.13" x2="4050.68" y2="4257.97" gradientTransform="matrix(0.74, 0.66, -0.66, 0.74, 407.33, -5517.71)" gradientUnits="userSpaceOnUse"><stop offset="0" stop-color="#c4c3c3"/><stop offset="0.03" stop-color="#bebdbd"/><stop offset="0.34" stop-color="#888787"/><stop offset="0.6" stop-color="#616060"/><stop offset="0.81" stop-color="#494848"/><stop offset="0.94" stop-color="#403f3f"/></linearGradient><linearGradient id="linear-gradient-52" x1="3918.68" y1="4496.97" x2="4157.13" y2="4272.65" gradientTransform="matrix(0.73, 0.68, -0.68, 0.73, 415.64, -5630.31)" gradientUnits="userSpaceOnUse"><stop offset="0" stop-color="#c3c2c2"/><stop offset="0.04" stop-color="#bbbaba"/><stop offset="0.34" stop-color="#858584"/><stop offset="0.6" stop-color="#5e5e5d"/><stop offset="0.81" stop-color="#464645"/><stop offset="0.94" stop-color="#3d3d3c"/></linearGradient><linearGradient id="linear-gradient-53" x1="4030.42" y1="4502.67" x2="4262.9" y2="4283.96" gradientTransform="matrix(0.72, 0.69, -0.69, 0.72, 423.95, -5742.92)" gradientUnits="userSpaceOnUse"><stop offset="0" stop-color="#c2c1c1"/><stop offset="0.05" stop-color="#b8b7b7"/><stop offset="0.35" stop-color="#828282"/><stop offset="0.61" stop-color="#5b5b5b"/><stop offset="0.81" stop-color="#434443"/><stop offset="0.94" stop-color="#3a3b3a"/></linearGradient><radialGradient id="radial-gradient-37" cx="3939.62" cy="-3999.72" fx="3919.1273510084875" fy="-3869.5852902246406" r="1402.22" gradientTransform="matrix(2.05, 0, 0, -1.21, -7828.58, -4675.26)" xlink:href="#radial-gradient-36"/><radialGradient id="radial-gradient-38" cx="3228.36" cy="314.67" r="1013.12" gradientTransform="translate(-5102.38) scale(1.68 1)" gradientUnits="userSpaceOnUse"><stop offset="0.28" stop-color="#fff"/><stop offset="1" stop-color="#ccc"/></radialGradient></defs><g class="cls-1"><g id="Layer_2" data-name="Layer 2"><g id="Layer_1-2" data-name="Layer 1"><rect class="cls-2" x="455.87" y="124.75" width="555.44" height="330.98"/><path class="cls-3" d="M1014.68,457.49c-187.86,2-371.55,0-561.79,0,0-108.15-2.19-225.42.73-334.32,187.65,3.22,373.61-4,558.75,1C1017.64,230.74,1013.42,355.06,1014.68,457.49Z"/><path class="cls-4" d="M1011.36,456.49c-186.25,2.11-368.36.15-556.92,0-.25-107.35-2.38-223.49.71-331.57,186,3.07,370.24-3.9,553.77,1.22C1014.34,231.84,1010.3,354.77,1011.36,456.49Z"/><path class="cls-5" d="M1008,455.48c-184.63,2.21-365.16.31-552,0-.5-106.53-2.57-221.56.69-328.8,184.32,2.9,366.86-3.79,548.78,1.4C1011,232.93,1007.19,354.49,1008,455.48Z"/><path class="cls-6" d="M1004.73,454.47c-183,2.31-362,.46-547.18,0-.76-105.72-2.77-219.63.66-326C640.86,131.17,821.7,124.76,1002,130,1007.72,234,1004.07,354.21,1004.73,454.47Z"/><path class="cls-7" d="M1001.41,453.46c-181.41,2.41-358.78.62-542.31,0-1-104.9-3-217.7.64-323.27,181,2.57,360.12-3.56,538.8,1.77C1004.41,235.13,1001,353.92,1001.41,453.46Z"/><path class="cls-8" d="M998.1,452.45c-179.81,2.51-355.6.77-537.45,0-1.27-104.09-3.15-215.77.63-320.51,179.3,2.42,356.74-3.43,533.81,2C1001.11,236.22,997.84,353.64,998.1,452.45Z"/><path class="cls-9" d="M994.78,451.44c-178.19,2.6-352.4.93-532.58,0-1.52-103.28-3.34-213.83.61-317.74,177.63,2.25,353.36-3.32,528.82,2.14C997.8,237.32,994.73,353.35,994.78,451.44Z"/><path class="cls-10" d="M991.46,450.43c-176.58,2.7-349.21,1.08-527.71,0-1.77-102.46-3.53-211.9.59-315,176,2.08,350-3.21,523.83,2.32C994.49,238.42,991.61,353.07,991.46,450.43Z"/><path class="cls-11" d="M988.15,449.43c-175,2.79-346,1.23-522.85,0-2-101.66-3.72-210,.57-312.22,174.3,1.92,346.62-3.09,518.84,2.52C991.18,239.51,988.5,352.79,988.15,449.43Z"/><path class="cls-12" d="M984.83,448.42c-173.36,2.89-342.83,1.39-518,0-2.28-100.84-3.93-208,.54-309.45,172.63,1.76,343.25-3,513.86,2.7C987.88,240.61,985.38,352.5,984.83,448.42Z"/><path class="cls-13" d="M981.52,447.41c-171.75,3-339.64,1.54-513.11,0-2.53-100-4.12-206.12.52-306.69,171,1.6,339.87-2.86,508.87,2.89C984.57,241.71,982.27,352.22,981.52,447.41Z"/><path class="cls-14" d="M978.2,446.4c-170.14,3.09-336.45,1.7-508.24,0-2.79-99.21-4.31-204.19.51-303.92,169.29,1.43,336.49-2.75,503.87,3.07C981.26,242.8,979.15,351.94,978.2,446.4Z"/><path class="cls-15" d="M974.88,445.39c-168.52,3.19-333.25,1.85-503.37,0-3-98.4-4.5-202.25.49-301.15,167.62,1.26,333.12-2.64,498.88,3.25C978,243.9,976,351.65,974.88,445.39Z"/><path class="cls-16" d="M971.57,444.38c-166.91,3.29-330.07,2-498.51,0-3.29-97.58-4.69-200.32.47-298.39,166,1.11,329.75-2.51,493.9,3.44C974.64,245,972.92,351.37,971.57,444.38Z"/><path class="cls-17" d="M968.25,443.38c-165.3,3.38-326.87,2.15-493.63,0-3.55-96.78-4.89-198.4.44-295.63,164.28.94,326.38-2.4,488.91,3.62C971.34,246.09,969.81,351.08,968.25,443.38Z"/><path class="cls-18" d="M964.93,442.37c-163.68,3.48-323.68,2.31-488.76,0-3.8-96-5.08-196.47.42-292.87,162.62.78,323-2.28,483.92,3.81C968,247.19,966.69,350.8,964.93,442.37Z"/><path class="cls-19" d="M961.62,441.36c-162.08,3.58-320.49,2.47-483.9,0-4.05-95.15-5.27-194.54.4-290.1,161,.61,319.63-2.17,478.93,4C964.72,248.29,963.58,350.52,961.62,441.36Z"/><path class="cls-20" d="M958.3,440.35c-160.46,3.68-317.3,2.62-479,0-4.3-94.34-5.46-192.6.39-287.34,159.27.46,316.25-2,473.94,4.19C961.41,249.38,960.46,350.23,958.3,440.35Z"/><path class="cls-21" d="M955,439.34c-158.86,3.78-314.11,2.78-474.17,0-4.56-93.52-5.65-190.67.37-284.57,157.6.29,312.88-1.94,469,4.37C958.11,250.48,957.35,350,955,439.34Z"/><path class="cls-22" d="M951.67,438.33c-157.24,3.88-310.92,2.93-469.3,0-4.81-92.71-5.84-188.74.35-281.8,155.93.12,309.5-1.83,464,4.55C954.8,251.57,954.24,349.67,951.67,438.33Z"/><path class="cls-23" d="M948.35,437.32c-155.63,4-307.72,3.09-464.42,0-5.07-91.89-6-186.81.32-279,154.27,0,306.13-1.71,459,4.74C951.49,252.67,951.12,349.38,948.35,437.32Z"/><path class="cls-24" d="M945,436.32c-154,4.07-304.54,3.23-459.56,0-5.32-91.09-6.24-184.89.3-276.28,152.6-.2,302.76-1.59,454,4.92C948.18,253.77,948,349.1,945,436.32Z"/><path class="cls-25" d="M941.72,435.31c-152.41,4.17-301.34,3.39-454.69,0-5.57-90.27-6.43-183,.28-273.52,150.93-.36,299.39-1.47,449,5.11C944.88,254.86,944.89,348.81,941.72,435.31Z"/><path class="cls-26" d="M938.41,434.3c-150.8,4.27-298.16,3.54-449.83,0-5.82-89.46-6.62-181,.26-270.75,149.26-.53,296-1.36,444,5.3C941.57,256,941.78,348.53,938.41,434.3Z"/><path class="cls-27" d="M935.09,433.29c-149.19,4.37-295,3.7-445,0-6.07-88.65-6.81-179.09.25-268,147.59-.69,292.63-1.24,439,5.49C938.26,257.06,938.66,348.25,935.09,433.29Z"/><path class="cls-28" d="M931.77,432.28c-147.57,4.47-291.77,3.86-440.08,0-6.34-87.83-7-177.16.22-265.22,145.92-.86,289.26-1.13,434,5.67C935,258.15,935.55,348,931.77,432.28Z"/><path class="cls-29" d="M928.46,431.27c-146,4.57-288.58,4-435.22,0-6.59-87-7.2-175.23.2-262.45,144.25-1,285.89-1,429,5.85C931.65,259.25,932.43,347.68,928.46,431.27Z"/><path class="cls-30" d="M925.14,430.26c-144.35,4.67-285.39,4.17-430.35,0C488,344.06,487.4,257,495,170.57c142.58-1.18,282.52-.9,424.05,6C928.34,260.35,929.32,347.4,925.14,430.26Z"/><path class="cls-31" d="M921.83,429.26c-142.74,4.76-282.2,4.31-425.49,0-7.09-85.4-7.58-171.37.16-256.93,140.92-1.35,279.14-.79,419.06,6.22C925,261.44,926.2,347.11,921.83,429.26Z"/><path class="cls-32" d="M918.51,428.25c-141.13,4.86-279,4.47-420.62,0-7.34-84.58-7.77-169.44.14-254.17,139.25-1.51,275.77-.66,414.08,6.41C921.72,262.54,923.09,346.83,918.51,428.25Z"/><path class="cls-33" d="M915.19,427.24c-139.51,5-275.81,4.62-415.75,0-7.59-83.77-8-167.51.13-251.4,137.57-1.67,272.39-.55,409.08,6.59C918.41,263.64,920,346.54,915.19,427.24Z"/><path class="cls-34" d="M911.88,426.23C774,431.29,639.25,431,501,426.23c-7.86-83-8.16-165.58.1-248.63,135.9-1.84,269-.44,404.09,6.78C915.11,264.73,916.86,346.26,911.88,426.23Z"/><path class="cls-35" d="M908.56,425.22c-136.29,5.16-269.43,4.94-406,0a1220.67,1220.67,0,0,1,.08-245.87c134.23-2,265.64-.32,399.1,7A1252.51,1252.51,0,0,1,908.56,425.22Z"/><path class="cls-36" d="M905.25,424.21c-134.69,5.26-266.25,5.09-401.15,0a1164,1164,0,0,1,.06-243.1c132.57-2.17,262.27-.21,394.12,7.15A1195.16,1195.16,0,0,1,905.25,424.21Z"/><path class="cls-37" d="M901.93,423.2c-133.07,5.36-263,5.25-396.28,0a1110.47,1110.47,0,0,1,0-240.34c130.9-2.32,258.9-.09,389.13,7.34A1139.91,1139.91,0,0,1,901.93,423.2Z"/><path class="cls-38" d="M898.61,422.2c-131.46,5.45-259.86,5.39-391.41,0a1059.75,1059.75,0,0,1,0-237.58c129.23-2.49,255.53,0,384.14,7.52A1086.18,1086.18,0,0,1,898.61,422.2Z"/><path class="cls-39" d="M895.3,421.19c-129.85,5.55-256.67,5.55-386.54,0a1010.55,1010.55,0,0,1,0-234.82c127.55-2.65,252.14.14,379.14,7.71C898.57,270.22,901.28,344.84,895.3,421.19Z"/><path class="cls-40" d="M449.52,121V459.51h568.12V121Zm561.79,334.76H455.87v-331h555.44Z"/><g class="cls-41"><path class="cls-42" d="M449.51,398.61c6.47,38.73-10.11,27.46,6.36,57.12C432.07,458.5,352.59,528,273.11,597.52s-159,139-182.76,141.79C71.89,741.1,32.5,561,19.92,522.05-12.74,416.29,5.44,293.81,2,184.65,1.24,144.33,76.15,73.57,94.49,71.09c23.8-2.77,102.24,12,180.69,26.82s156.89,29.6,180.69,26.84c31.58,46.59-12.91,35.15-6.36,73.89C467.38,305,431.63,292.24,449.51,398.61Z"/><path class="cls-43" d="M275.33,98.74c76.91,14.51,155.06,30.49,178.39,27.78,31,45.68-12.3,34.89-5.87,72.87,17.52,104.27-16.65,92.81.88,197.1,6.42,38.14-9.83,29.1,6.23,58.33-23.33,2.72-102.68,71.32-180.6,139.47S117.1,731,93.76,733.75C75.34,735.11,36.52,558,24,519.19c-10-32.35-15.16-66.27-17.66-100.87-5.16-71,.94-144.86.23-213.52q-.11-9.44-.33-18.88c-.61-39.73,73-109.5,91.22-112.34C121.14,70.25,198.38,84.14,275.33,98.74Z"/><path class="cls-44" d="M275.48,99.56C350.85,113.78,428.7,131,451.57,128.29c30.34,44.77-11.68,34.63-5.39,71.85,17.17,102.19-15.41,92,1.77,194.23,6.38,37.54-9.55,30.74,6.1,59.55C431.18,456.59,352,524.27,275.61,591.06S120,725.53,97.17,728.19c-18.37.94-56.64-173.26-69-211.86-9.83-32-15-65.46-17.45-99.63-5.18-70.45.8-143.51.15-210.87-.07-6.17-.14-12.39-.26-18.64-.5-39.13,71.86-107.92,89.91-111.12C124,72.19,200,85.17,275.48,99.56Z"/><path class="cls-45" d="M275.64,100.39c73.83,13.93,151.38,32.28,173.79,29.68,29.71,43.85-11.08,34.36-4.91,70.82,16.82,100.1-14.18,91.24,2.64,191.35,6.34,37-9.27,32.39,6,60.78-22.4,2.61-101.47,69.39-176.28,134.81S123,720,100.58,722.63c-18.32.51-56-170.73-68.31-209.16C22.58,481.9,17.51,448.81,15,415.08c-5.2-69.86.66-142.15.07-208.23-.07-6-.12-12.18-.2-18.38-.38-38.55,70.71-106.36,88.6-109.91C126.84,74.12,201.68,86.2,275.64,100.39Z"/><path class="cls-46" d="M275.79,101.22c72.29,13.63,149.55,33.17,171.49,30.62,29.1,42.94-10.46,34.1-4.43,69.8,16.48,98-12.94,90.45,3.53,188.48,6.3,36.36-9,34,5.84,62-21.93,2.55-100.86,68.42-174.11,132.48S125.93,714.52,104,717.07c-18.29.08-55.44-168.2-67.61-206.46-9.56-31.19-14.57-63.86-17-97.14-5.22-69.28.52-140.81,0-205.6-.07-5.91-.09-12-.12-18.13C18.94,151.79,88.76,85,106.5,81.05,129.69,76.05,203.33,87.23,275.79,101.22Z"/><path class="cls-47" d="M275.94,102c70.76,13.35,147.72,34.07,169.19,31.57,28.48,42-9.85,33.84-3.94,68.79,16.12,95.93-11.71,89.65,4.41,185.6,6.25,35.76-8.71,35.66,5.71,63.21-21.47,2.51-100.26,67.46-171.95,130.15S128.88,709,107.41,711.51c-18.24-.34-54.84-165.68-66.9-203.76-9.42-30.8-14.38-63.05-16.83-95.9-5.25-68.69.38-139.45-.1-203-.06-5.79-.06-11.78,0-17.89-.17-37.36,68.39-103.2,86-107.46C132.54,78,205,88.26,275.94,102Z"/><path class="cls-48" d="M276.1,102.87c69.21,13,145.88,35,166.88,32.52,27.86,41.1-9.23,33.57-3.45,67.76C455.3,297,429.05,292,444.82,385.88c6.2,35.17-8.43,37.3,5.58,64.43-21,2.45-99.66,66.49-169.79,127.82S131.82,703.5,110.82,706c-18.19-.77-54.24-163.15-66.19-201.06C35.34,474.48,30.44,442.64,28,410.24c-5.26-68.11.24-138.11-.17-200.32-.07-5.66,0-11.57,0-17.64C27.79,155.52,95.07,90.66,112.51,86,135.39,79.92,206.63,89.29,276.1,102.87Z"/><path class="cls-49" d="M276.25,103.69c67.68,12.77,144.05,35.86,164.58,33.47,27.24,40.19-8.62,33.31-3,66.74,15.42,91.76-9.24,88.08,6.18,179.85,6.16,34.58-8.16,38.95,5.45,65.66C429,451.8,350.43,514.93,281.86,574.9S134.77,698,114.23,700.39C96.08,699.19,60.6,539.77,48.75,502c-9.15-30-14-61.45-16.43-93.41C27,341.1,32.43,271.86,32.07,211c-.06-5.54,0-11.37.09-17.39.05-36.18,66.06-100,83.35-105C138.24,81.86,208.28,90.32,276.25,103.69Z"/><path class="cls-50" d="M276.4,104.52c66.14,12.47,142.22,36.75,162.29,34.41,26.62,39.28-8,33.06-2.49,65.72,15.07,89.67-8,87.29,7.05,177,6.12,34-7.87,40.59,5.33,66.88-20.07,2.34-98.46,64.55-165.47,123.16S137.71,692.49,117.64,694.83c-18.1-1.63-53-158.09-64.78-195.66-9-29.64-13.8-60.64-16.21-92.16-5.31-66.94,0-135.41-.34-195-.06-5.41,0-11.16.16-17.14.17-35.59,64.91-98.47,82-103.81C141.09,83.79,209.92,91.35,276.4,104.52Z"/><path class="cls-51" d="M276.56,105.34c64.6,12.19,140.38,37.64,160,35.37,26,38.36-7.4,32.79-2,64.69,14.72,87.59-6.78,86.51,7.94,174.11,6.07,33.39-7.59,42.23,5.19,68.1-19.6,2.28-97.85,63.59-163.3,120.83S140.66,687,121.06,689.26C103,687.22,68.62,533.7,57,496.3c-8.87-29.24-13.61-59.83-16-90.91C35.65,339,40.8,271.33,40.56,213c-.06-5.29,0-11,.22-16.9.28-35,63.75-96.9,80.73-102.58C143.94,85.73,211.57,92.38,276.56,105.34Z"/><path class="cls-52" d="M276.71,106.17c63.06,11.89,138.54,38.53,157.68,36.31,25.38,37.45-6.78,32.53-1.52,63.67,14.37,85.51-5.55,85.72,8.82,171.24,6,32.8-7.31,43.87,5.06,69.31-19.13,2.23-97.24,62.63-161.14,118.51S143.6,681.48,124.47,683.7c-18-2.47-51.83-153-63.37-190.26-8.73-28.85-13.42-59-15.81-89.66C40,338,45,271.06,44.8,214c-.06-5.16.07-10.75.3-16.65C45.49,163,107.68,102.05,124.51,96,146.79,87.66,213.22,93.41,276.71,106.17Z"/><path class="cls-53" d="M276.86,107c61.53,11.61,136.71,39.43,155.38,37.26,24.77,36.54-6.17,32.27-1,62.65,14,83.42-4.32,84.93,9.7,168.37,6,32.2-7,45.51,4.93,70.53C427.17,448,349.2,507.46,286.86,562s-140.31,114-159,116.16c-18-2.9-51.23-150.5-62.66-187.56-8.6-28.47-13.23-58.22-15.6-88.42C44.25,337,49.17,270.8,49,215.05c0-5,.1-10.55.37-16.41.5-33.8,61.43-93.74,78.11-100.14C149.64,89.59,214.87,94.44,276.86,107Z"/><path class="cls-54" d="M277,107.82c60,11.31,134.87,40.32,153.07,38.21,24.15,35.62-5.56,32-.55,61.63,13.67,81.33-3.08,84.14,10.59,165.48,5.93,31.62-6.76,47.15,4.8,71.76-18.2,2.12-96,60.69-156.82,113.84S149.49,670.47,131.29,672.58c-17.92-3.32-50.62-148-61.95-184.86-8.46-28.08-13-57.42-15.4-87.18-5.38-64.59-.59-130-.65-184.47-.06-4.9.12-10.34.43-16.15.61-33.22,60.27-92.17,76.8-98.93C152.49,91.53,216.52,95.47,277,107.82Z"/><path class="cls-55" d="M277.17,108.64c58.45,11,133,41.22,150.78,39.16,23.52,34.71-4.95,31.74-.07,60.61C441.2,287.65,426,291.76,439.35,371c5.89,31-6.48,48.79,4.67,73-17.74,2.06-95.44,59.72-154.66,111.51S152.44,665,134.7,667c-17.88-3.75-50-145.45-61.24-182.16-8.33-27.69-12.79-56.62-15.2-85.93-5.26-64-.72-128.67-.73-181.83-.05-4.78.15-10.15.51-15.91.72-32.63,59.11-90.59,75.48-97.71C155.34,93.46,218.17,96.5,277.17,108.64Z"/><path class="cls-56" d="M277.32,109.47c56.91,10.73,131.21,42.11,148.48,40.1,22.9,33.8-4.34,31.48.42,59.59,13,77.16-.62,82.56,12.34,159.74,5.85,30.43-6.19,50.43,4.54,74.19-17.26,2-94.83,58.76-152.49,109.19S155.38,659.45,138.12,661.46C120.28,657.28,88.69,518.54,77.57,482c-8.18-27.31-12.58-55.82-15-84.69-5.28-63.43-.87-127.31-.82-179.19-.05-4.65.18-9.94.58-15.66.83-32,58-89,74.17-96.48C158.19,95.4,219.82,97.53,277.32,109.47Z"/><path class="cls-57" d="M277.48,110.29c55.37,10.45,129.37,43,146.17,41.06,22.29,32.88-3.72,31.21.9,58.56,12.62,75.08.62,81.78,13.23,156.87,5.81,29.83-5.92,52.07,4.41,75.41-16.8,2-94.23,57.79-150.33,106.86S158.33,654,141.53,655.9c-17.79-4.61-48.82-140.39-59.84-176.76-8-26.92-12.39-55-14.78-83.44-5.29-62.85-1-126-.89-176.55,0-4.53.2-9.74.64-15.42,1-31.44,56.79-87.44,72.86-95.26C161,97.33,221.47,98.55,277.48,110.29Z"/><path class="cls-58" d="M277.63,111.12c53.84,10.15,127.54,43.9,143.87,42,21.67,32-3.11,30.95,1.39,57.54,12.27,73,1.84,81,14.11,154,5.76,29.24-5.64,53.72,4.28,76.64-16.33,1.9-93.62,56.83-148.17,104.53S161.27,648.44,144.94,650.34c-17.75-5-48.22-137.86-59.13-174.06-7.91-26.53-12.19-54.21-14.57-82.2-5.3-62.26-1.15-124.62-1-173.91-.05-4.4.23-9.53.71-15.16,1.06-30.85,55.64-85.87,71.56-94C163.89,99.27,223.11,99.58,277.63,111.12Z"/><path class="cls-59" d="M277.78,111.94c52.3,9.87,125.7,44.8,141.57,42.95,21,31.06-2.49,30.69,1.87,56.52,11.92,70.91,3.08,80.2,15,151.12,5.71,28.65-5.36,55.36,4.15,77.86-15.87,1.85-93,55.86-146,102.2s-130.14,100.34-146,102.19c-17.7-5.46-47.62-135.34-58.42-171.36-7.78-26.14-12-53.41-14.37-80.95C70.25,330.79,74.28,269.2,74.5,221.2a148.26,148.26,0,0,1,.79-14.92C76.45,176,129.76,122,145.53,113.45,166.74,101.2,224.76,100.61,277.78,111.94Z"/><path class="cls-60" d="M277.94,112.77c50.76,9.58,123.86,45.69,139.27,43.9,20.43,30.14-1.89,30.43,2.35,55.49,11.57,68.82,4.31,79.42,15.88,148.25,5.67,28-5.09,57,4,79.07-15.4,1.8-92.42,54.9-143.85,99.88s-128.45,98.07-143.85,99.86c-17.65-5.89-47-132.81-57.71-168.66C86.41,444.8,82.24,418,79.88,390.85c-5.32-61.09-1.42-121.92-1.13-168.63a133.18,133.18,0,0,1,.85-14.67c1.28-29.67,53.31-82.71,68.93-91.61C169.59,103.13,226.41,101.64,277.94,112.77Z"/><path class="cls-61" d="M278.09,113.59c49.22,9.29,122,46.59,137,44.85,19.81,29.23-1.27,30.17,2.84,54.48,11.21,66.73,5.54,78.62,16.76,145.37,5.62,27.46-4.81,58.63,3.88,80.29-14.93,1.74-91.81,53.93-141.68,97.54s-126.75,95.8-141.68,97.54c-17.62-6.32-46.42-130.28-57-166-7.51-25.37-11.61-51.8-14-78.47-5.34-60.51-1.56-120.57-1.22-166a125,125,0,0,1,.92-14.43c1.39-29.07,52.16-81.14,67.62-90.38C172.44,105.07,228.06,102.67,278.09,113.59Z"/><path class="cls-62" d="M278.24,114.42c47.69,9,120.2,47.47,134.67,45.79,19.19,28.32-.66,29.91,3.32,53.46,10.87,64.64,6.78,77.83,17.64,142.49,5.58,26.87-4.52,60.28,3.76,81.52-14.46,1.69-91.21,53-139.52,95.21s-125,93.53-139.52,95.21c-17.57-6.74-45.82-127.75-56.31-163.26-7.36-25-11.41-51-13.75-77.22-5.35-59.93-1.7-119.22-1.3-163.35a113.47,113.47,0,0,1,1-14.17c1.5-28.49,51-79.57,66.3-89.17C175.29,107,229.71,103.7,278.24,114.42Z"/><path class="cls-63" d="M278.4,115.25C324.54,124,396.76,163.61,410.76,162c18.57,27.4,0,29.64,3.81,52.43,10.51,62.56,8,77.05,18.52,139.62,5.54,26.28-4.24,61.92,3.63,82.74-14,1.63-90.61,52-137.36,92.88S176,620.91,162,622.54c-17.52-7.17-45.21-125.23-55.6-160.56-7.22-24.6-11.22-50.2-13.55-76C87.49,326.66,91,268.13,91.48,225.3a105.18,105.18,0,0,1,1.06-13.93c1.61-27.89,49.84-78,65-87.95C178.14,108.94,231.36,104.73,278.4,115.25Z"/><path class="cls-64" d="M278.55,116.07c44.61,8.42,116.53,49.26,130.06,47.69,18,26.49.57,29.38,4.3,51.41,10.16,60.48,9.24,76.26,19.4,136.75,5.49,25.68-4,63.56,3.5,84-13.54,1.57-90,51-135.2,90.55S179,615.4,165.41,617c-17.48-7.6-44.61-122.7-54.89-157.86-7.09-24.21-11-49.4-13.34-74.73-5.38-58.76-2-116.53-1.46-158.07a98,98,0,0,1,1.13-13.68c1.73-27.3,48.68-76.41,63.69-86.73C181,110.87,233,105.76,278.55,116.07Z"/><path class="cls-65" d="M278.7,116.9c43.07,8.12,114.7,50.15,127.76,48.63,17.34,25.58,1.19,29.12,4.78,50.39,9.82,58.39,10.48,75.47,20.29,133.88C437,374.89,427.84,415,434.9,435c-13.07,1.53-89.4,50.07-133,88.23s-120,86.7-133,88.22c-17.43-8-44-120.17-54.18-155.16-7-23.82-10.83-48.59-13.14-73.49C96.11,324.6,99.39,267.6,100,227.34a91.75,91.75,0,0,1,1.21-13.43c1.83-26.71,47.51-74.83,62.37-85.51C183.84,112.81,234.66,106.79,278.7,116.9Z"/><path class="cls-66" d="M278.86,117.72c41.53,7.84,112.85,51.05,125.46,49.59,16.71,24.66,1.79,28.85,5.26,49.36,9.46,56.31,11.7,74.69,21.17,131,5.4,24.5-3.41,66.85,3.23,86.4-12.6,1.47-88.79,49.1-130.87,85.9s-118.27,84.42-130.87,85.89c-17.39-8.45-43.41-117.65-53.48-152.46-6.82-23.43-10.64-47.79-12.94-72.24-5.4-57.59-2.24-113.83-1.61-152.79a84.32,84.32,0,0,1,1.27-13.18c1.94-26.12,46.36-73.27,61.06-84.29C186.69,114.74,236.31,107.82,278.86,117.72Z"/><path class="cls-67" d="M279,118.55c40,7.54,111,51.94,123.16,50.53,16.1,23.75,2.41,28.59,5.74,48.34,9.12,54.22,12.94,73.9,22,128.13,5.36,23.9-3.12,68.49,3.11,87.62-12.13,1.41-88.19,48.13-128.71,83.57S187.78,598.89,175.65,600.3c-17.35-8.88-42.81-115.12-52.77-149.76-6.68-23.05-10.45-47-12.73-71-5.42-57-2.39-112.48-1.7-150.15a79.24,79.24,0,0,1,1.34-12.93c2.06-25.53,45.2-71.69,59.75-83.07C189.54,116.67,238,108.85,279,118.55Z"/><path class="cls-68" d="M279.16,119.37c38.46,7.26,109.19,52.84,120.86,51.48,15.48,22.84,3,28.33,6.23,47.32,8.76,52.14,14.17,73.11,22.93,125.26,5.32,23.31-2.85,70.12,3,88.84-11.67,1.36-87.59,47.16-126.55,81.23s-114.88,79.88-126.55,81.24c-17.3-9.31-42.2-112.59-52.07-147.06-6.54-22.66-10.25-46.18-12.52-69.76C109,321.51,112,266.8,112.69,230.42a74.83,74.83,0,0,1,1.42-12.69c2.16-24.93,44-70.11,58.44-81.85C192.39,118.61,239.6,109.88,279.16,119.37Z"/><path class="cls-69" d="M279.32,120.2c36.91,7,107.35,53.73,118.55,52.43,14.86,21.92,3.63,28.06,6.72,46.3C413,269,420,291.25,428.4,341.31c5.27,22.71-2.57,71.76,2.85,90.05-11.2,1.31-87,46.2-124.39,78.91s-113.19,77.6-124.39,78.91c-17.25-9.73-41.6-110.06-51.36-144.36-6.4-22.27-10.06-45.38-12.31-68.51-5.46-55.83-2.67-109.78-1.86-144.87A69.45,69.45,0,0,1,118.42,219c2.28-24.34,42.88-68.53,57.13-80.63C195.24,120.54,241.25,110.91,279.32,120.2Z"/><path class="cls-70" d="M279.47,121C314.85,127.7,385,175.65,395.72,174.4c14.24,21,4.25,27.81,7.2,45.28,8.06,48,16.64,71.53,24.7,119.5,5.22,22.13-2.29,73.41,2.72,91.28C419.6,431.71,344,475.69,308.11,507s-111.49,75.33-122.23,76.58c-17.21-10.16-41-107.54-50.65-141.66-6.27-21.89-9.86-44.58-12.11-67.27-5.47-55.24-2.8-108.43-1.94-142.22a66.61,66.61,0,0,1,1.55-12.2c2.39-23.75,41.72-67,55.82-79.41C198.09,122.48,242.9,111.94,279.47,121Z"/><path class="cls-71" d="M279.62,121.85c33.84,6.38,103.69,55.52,114,54.32,13.62,20.1,4.85,27.55,7.68,44.26,7.71,45.88,17.87,70.74,25.58,116.63,5.18,21.53-2,75.05,2.58,92.5-10.26,1.2-85.77,44.27-120.06,74.25s-109.8,73.05-120.06,74.25c-17.17-10.59-40.4-105-50-139-6.13-21.5-9.67-43.77-11.91-66-5.49-54.66-2.94-107.08-2-139.59a62.48,62.48,0,0,1,1.63-11.94c2.5-23.16,40.56-65.39,54.5-78.19C200.94,124.41,244.55,113,279.62,121.85Z"/><path class="cls-72" d="M279.78,122.67c32.3,6.1,101.85,56.42,111.65,55.28,13,19.18,5.47,27.28,8.17,43.23,7.36,43.79,19.1,70,26.46,113.76,5.13,20.94-1.74,76.69,2.45,93.72-9.8,1.14-85.17,43.3-117.9,71.92s-108.1,70.77-117.9,71.91c-17.12-11-39.8-102.47-49.24-136.25-6-21.11-9.48-43-11.7-64.78-5.51-54.08-3.08-105.73-2.1-136.94a59.24,59.24,0,0,1,1.69-11.7c2.61-22.57,39.4-63.81,53.19-77C203.79,126.35,246.2,114,279.78,122.67Z"/><path class="cls-73" d="M279.93,123.5c30.76,5.8,100,57.3,109.35,56.22,12.38,18.27,6.08,27,8.65,42.21,7,41.71,20.33,69.17,27.34,110.89,5.09,20.34-1.45,78.33,2.33,94.94-9.33,1.08-84.57,42.33-115.74,69.59s-106.41,68.5-115.74,69.58C179,555.5,156.93,467,147.59,433.37c-5.86-20.72-9.29-42.16-11.5-63.52-5.53-53.5-3.22-104.39-2.18-134.31a56.49,56.49,0,0,1,1.76-11.45c2.72-22,38.24-62.23,51.89-75.75C206.64,128.28,247.85,115,279.93,123.5Z"/><path class="cls-74" d="M280.08,124.32c29.23,5.52,98.18,58.2,107.05,57.17,11.76,17.36,6.7,26.76,9.14,41.19,6.66,39.63,21.56,68.38,28.22,108,5.05,19.76-1.17,80,2.2,96.16-8.87,1-84,41.37-113.58,67.27S208.4,560.34,199.53,561.37c-17-11.86-38.59-97.42-47.83-130.86-5.71-20.33-9.09-41.35-11.29-62.28-5.54-52.91-3.35-103-2.26-131.66A54.67,54.67,0,0,1,140,225.36c2.84-21.38,37.09-60.65,50.58-74.53C209.49,130.21,249.5,116.05,280.08,124.32Z"/><path class="cls-75" d="M280.24,125.15c27.68,5.22,96.34,59.09,104.74,58.12,11.15,16.44,7.31,26.49,9.62,40.16,6.31,37.54,22.8,67.6,29.11,105.14,5,19.16-.9,81.61,2.07,97.38-8.4,1-83.37,40.4-111.42,64.93s-103,64-111.42,64.93c-17-12.29-38-94.89-47.12-128.16-5.58-19.94-8.9-40.55-11.08-61-5.57-52.33-3.5-101.69-2.34-129,0-2.26.68-6.06,1.9-11,2.94-20.8,35.92-59.08,49.26-73.32C212.34,132.15,251.14,117.08,280.24,125.15Z"/><path class="cls-76" d="M280.39,126c26.15,4.94,94.51,60,102.45,59.07,10.52,15.53,7.92,26.23,10.1,39.15,6,35.45,24,66.8,30,102.26,5,18.57-.62,83.25,1.93,98.6-7.93.92-82.76,39.43-109.25,62.6s-101.32,61.68-109.26,62.6c-16.94-12.71-37.38-92.36-46.41-125.46C154.5,405.24,151.22,385,149.06,365c-5.59-51.74-3.63-100.34-2.42-126.38,0-2.14.7-5.86,2-10.71,3.06-20.2,34.76-57.51,47.95-72.09C215.19,134.08,252.79,118.11,280.39,126Z"/><path class="cls-77" d="M280.54,126.8c24.61,4.64,92.68,60.88,100.15,60,9.9,14.62,8.53,26,10.59,38.13,5.6,33.36,25.26,66,30.87,99.39,4.91,18-.34,84.89,1.8,99.82-7.46.87-82.16,38.46-107.09,60.27s-99.63,59.4-107.09,60.27c-16.9-13.14-36.79-89.83-45.71-122.76-5.31-19.17-8.53-38.94-10.68-58.55-5.6-51.15-3.77-99-2.49-123.74,0-2,.72-5.66,2-10.46,3.17-19.61,33.61-55.93,46.64-70.87C218,136,254.44,119.14,280.54,126.8Z"/><path class="cls-78" d="M280.7,127.62c23.07,4.36,90.84,61.78,97.84,61,9.29,13.7,9.15,25.7,11.07,37.1,5.26,31.28,26.5,65.23,31.76,96.52,4.86,17.37-.06,86.53,1.67,101-7,.82-81.55,37.51-104.93,57.95s-97.93,57.13-104.93,57.94c-16.85-13.57-36.19-87.31-45-120.06-5.17-18.78-8.34-38.14-10.47-57.3-5.63-50.57-3.91-97.64-2.58-121.1,0-1.89.75-5.46,2.11-10.22,3.28-19,32.44-54.35,45.33-69.65C220.89,138,256.09,120.17,280.7,127.62Z"/><path class="cls-79" d="M280.85,128.45c21.53,4.06,89,62.67,95.54,61.91,8.67,12.79,9.76,25.45,11.56,36.08,4.91,29.2,27.73,64.44,32.63,93.64,4.83,16.79.22,88.18,1.55,102.26-6.53.76-80.95,36.54-102.77,55.62s-96.24,54.85-102.77,55.61c-16.81-14-35.58-84.78-44.29-117.36A369.87,369.87,0,0,1,162,360.15c-5.66-50-4.05-96.29-2.66-118.46,0-1.76.78-5.25,2.18-10,3.39-18.43,31.29-52.78,44-68.44C223.74,139.89,257.74,121.2,280.85,128.45Z"/><path class="cls-80" d="M281,129.28c20,3.77,87.18,63.56,93.24,62.85,8.05,11.88,10.38,25.19,12.05,35.06,4.55,27.11,29,63.65,33.51,90.77,4.78,16.19.5,89.82,1.42,103.48-6.07.71-80.35,35.57-100.61,53.29S226.07,527.31,220,528c-16.76-14.42-35-82.25-43.59-114.66a371.11,371.11,0,0,1-10-54.81,669.62,669.62,0,0,1-2.74-115.82c0-1.64.8-5.05,2.24-9.72,3.5-17.84,30.13-51.2,42.71-67.21C226.59,141.82,259.39,122.23,281,129.28Z"/><path class="cls-81" d="M281.16,130.1c18.45,3.48,85.33,64.46,90.94,63.81,7.42,11,11,24.92,12.52,34,4.21,25,30.19,62.87,34.4,87.9,4.73,15.6.78,91.46,1.28,104.7-5.6.65-79.74,34.6-98.44,51s-92.85,50.3-98.45,51c-16.71-14.85-34.38-79.72-42.88-112a370.1,370.1,0,0,1-9.85-53.57c-5.71-48.81-4.33-93.59-2.82-113.18,0-1.51.83-4.84,2.32-9.47,3.61-17.24,29-49.63,41.39-66C229.44,143.75,261,123.26,281.16,130.1Z"/><path class="cls-82" d="M281.31,130.93c16.92,3.19,83.5,65.35,88.64,64.75,6.81,10,11.59,24.66,13,33,3.85,22.94,31.42,62.08,35.28,85,4.69,15,1.05,93.09,1.15,105.92-5.13.59-79.14,33.63-96.28,48.62s-91.15,48-96.28,48.63c-16.68-15.28-33.78-77.2-42.18-109.26A372.41,372.41,0,0,1,175,355.31c-5.73-48.23-4.46-92.25-2.9-110.54,0-1.39.86-4.64,2.39-9.23,3.72-16.65,27.81-48,40.08-64.77C232.29,145.69,262.69,124.29,281.31,130.93Z"/><path class="cls-83" d="M281.46,131.75c15.38,2.9,81.67,66.25,86.34,65.7,6.19,9.14,12.21,24.4,13.49,32,3.51,20.85,32.66,61.29,36.17,82.14,4.64,14.42,1.33,94.74,1,107.14-4.67.55-78.54,32.67-94.12,46.3s-89.45,45.76-94.12,46.3c-16.63-15.7-33.18-74.67-41.47-106.56a371.93,371.93,0,0,1-9.44-51.08c-5.77-47.64-4.6-90.89-3-107.9,0-1.26.88-4.43,2.45-9,3.84-16.06,26.65-46.48,38.77-63.56C235.14,147.62,264.33,125.32,281.46,131.75Z"/><path class="cls-84" d="M281.62,132.58c13.84,2.61,79.83,67.13,84,66.65,5.57,8.22,12.82,24.13,14,31,3.15,18.77,33.89,60.5,37.05,79.27,4.6,13.82,1.61,96.38.89,108.36-4.2.49-77.93,31.7-92,44s-87.76,43.48-92,44c-16.58-16.13-32.57-72.14-40.76-103.86a374.09,374.09,0,0,1-9.24-49.84c-5.8-47.05-4.74-89.54-3.06-105.25,0-1.14.91-4.24,2.53-8.73,3.94-15.47,25.48-44.9,37.46-62.34C238,149.56,266,126.35,281.62,132.58Z"/><path class="cls-85" d="M281.77,133.4c12.31,2.32,78,68,81.73,67.6,5,7.31,13.44,23.87,14.47,29.95,2.8,16.68,35.12,59.71,37.92,76.4,4.56,13.23,1.9,98,.77,109.58-3.74.43-77.33,30.74-89.8,41.64s-86.06,41.2-89.8,41.64c-16.54-16.56-32-69.61-40.05-101.16a378.57,378.57,0,0,1-9-48.59c-5.82-46.47-4.87-88.2-3.14-102.62,0-1,.94-4,2.6-8.48,4-14.87,24.33-43.32,36.15-61.11C240.84,151.49,267.63,127.37,281.77,133.4Z"/><path class="cls-86" d="M281.92,134.23c10.77,2,76.17,68.92,79.43,68.54,4.34,6.4,14,23.61,14.95,28.93,2.46,14.6,36.36,58.93,38.81,73.53,4.51,12.63,2.17,99.66.63,110.8-3.26.38-76.72,29.77-87.63,39.31s-84.37,38.93-87.64,39.31c-16.49-17-31.37-67.09-39.35-98.46a379.89,379.89,0,0,1-8.82-47.35c-5.86-45.87-5-86.84-3.22-100,0-.88,1-3.82,2.66-8.23,4.17-14.28,23.17-41.75,34.84-59.89C243.69,153.43,269.28,128.4,281.92,134.23Z"/><path class="cls-87" d="M282.08,135.05c9.23,1.74,74.33,69.82,77.13,69.5,3.71,5.48,14.66,23.34,15.43,27.9,2.1,12.51,37.59,58.14,39.69,70.65,4.47,12,2.45,101.31.5,112-2.8.33-76.12,28.81-85.47,37s-82.67,36.65-85.47,37c-16.46-17.41-30.77-64.56-38.65-95.76a386.91,386.91,0,0,1-8.62-46.1c-5.9-45.29-5.15-85.5-3.3-97.34,0-.76,1-3.62,2.74-8,4.27-13.7,22-40.18,33.52-58.68C246.54,155.36,270.93,129.43,282.08,135.05Z"/><path class="cls-88" d="M282.23,135.88c7.69,1.45,72.49,70.71,74.83,70.44,3.09,4.57,15.27,23.08,15.91,26.88,1.76,10.43,38.83,57.35,40.58,67.78,4.42,11.45,2.73,103,.37,113.24-2.33.27-75.52,27.84-83.31,34.66s-81,34.38-83.31,34.65c-16.41-17.84-30.17-62-37.94-93.06a390.28,390.28,0,0,1-8.42-44.86c-5.93-44.7-5.29-84.15-3.38-94.7,0-.63,1-3.41,2.81-7.73,4.39-13.1,20.85-38.6,32.21-57.46C249.39,157.29,272.58,130.46,282.23,135.88Z"/><path class="cls-89" d="M282.38,136.7c6.16,1.16,70.66,71.61,72.53,71.39,2.48,3.66,15.89,22.83,16.4,25.86,1.4,8.35,40.05,56.57,41.46,64.91,4.37,10.85,3,104.58.24,114.46-1.87.22-74.92,26.87-81.15,32.32S252.58,477.75,250.71,478c-16.36-18.27-29.57-59.51-37.23-90.36A397.75,397.75,0,0,1,205.27,344c-6-44.12-5.43-82.8-3.46-92.06,0-.5,1-3.21,2.87-7.49,4.5-12.51,19.69-37,30.91-56.24C252.24,159.23,274.23,131.49,282.38,136.7Z"/><path class="cls-90" d="M282.54,137.53c4.61.87,68.82,72.5,70.22,72.34,1.86,2.74,16.5,22.56,16.89,24.84,1.05,6.25,41.28,55.77,42.33,62,4.34,10.26,3.29,106.22.12,115.68-1.4.16-74.32,25.9-79,30s-77.59,29.83-79,30c-16.32-18.69-29-57-36.52-87.66a396.29,396.29,0,0,1-8-42.37c-6.1-43.52-5.57-81.45-3.54-89.42a60.34,60.34,0,0,1,2.95-7.24c4.61-11.91,18.53-35.44,29.59-55C255.09,161.16,275.88,132.52,282.54,137.53Z"/><path class="cls-91" d="M282.69,138.35c3.08.58,67,73.4,67.92,73.29,1.24,1.83,17.12,22.3,17.37,23.82.7,4.17,42.52,55,43.22,59.15,4.29,9.67,3.57,107.87,0,116.91-.94.1-73.71,24.94-76.83,27.66s-75.89,27.56-76.83,27.67c-16.27-19.12-28.36-54.45-35.81-85a410,410,0,0,1-7.81-41.13c-6.12-42.93-5.7-80.1-3.62-86.77,0-.25,1.1-2.8,3-7,4.72-11.32,17.37-33.87,28.28-53.79C257.94,163.1,277.52,133.55,282.69,138.35Z"/><path class="cls-92" d="M282.84,139.18c1.54.29,65.16,74.29,65.63,74.23.62.92,17.72,22,17.85,22.8.35,2.08,43.75,54.2,44.1,56.28,4.24,9.08,3.85,109.51-.15,118.12-.46.06-73.1,24-74.66,25.34s-74.2,25.28-74.66,25.34c-16.23-19.55-27.77-51.92-35.12-82.26-3.25-13.36-5.73-26.88-7.59-39.88-6.14-42.35-5.85-78.75-3.7-84.14,0-.12,1.12-2.6,3.08-6.74,4.83-10.74,16.21-32.3,27-52.58C260.79,165,279.17,134.58,282.84,139.18Z"/><path class="cls-93" d="M264.36,455.73c-23.14-28.56-35.64-76.44-41.8-118.2s-6-77.4-3.78-81.49c0,0,60-124.51,64.22-116l63.32,75.19,63.32,75.18c4.2,8.48,4.13,111.15-.28,119.34l-72.5,23Z"/></g><path class="cls-94" d="M449.51,122,186.81,3.7V576.76l262.7-118.25Z"/><path class="cls-2" d="M449.51,118.25,186.81,0V573.06L449.51,454.8Z"/><path class="cls-95" d="M439.15,118.25,186.81,4.67V0H176.45V576.76h10.36v-7.18C271.71,531.36,354.25,493,439.15,454.8Z"/><path class="cls-96" d="M449.51,122,186.81,3.7V576.76l262.7-118.25Z"/></g></g></g></svg>