<svg xmlns="http://www.w3.org/2000/svg" width="15" height="13" viewBox="0 0 15 13">
    <path fill="#000" fill-rule="evenodd" d="M7.442 13L1.13 6.683C-.376 5.153-.376 2.67 1.128 1.144A3.787 3.787 0 0 1 3.848 0c1.03 0 1.996.407 2.723 1.145l-.617.608A2.936 2.936 0 0 0 3.85.866c-.795 0-1.543.314-2.104.886a3.091 3.091 0 0 0 0 4.321l5.697 5.702 5.893-5.894c1.014-1.17.948-2.993-.17-4.128A2.928 2.928 0 0 0 11.06.866c-.797 0-1.545.314-2.107.886L6.3 4.417a1.256 1.256 0 0 0-.003 1.801 1.328 1.328 0 0 0 1.856 0l2.584-2.582.611.612-2.585 2.585a2.2 2.2 0 0 1-3.074.002 2.115 2.115 0 0 1-.638-1.516c0-.572.227-1.11.638-1.515l2.65-2.66A3.793 3.793 0 0 1 11.06 0a3.79 3.79 0 0 1 2.721 1.146c1.433 1.455 1.515 3.794.186 5.325L7.442 13z" opacity=".25"/>
</svg>
