<svg xmlns="http://www.w3.org/2000/svg" viewBox="0 0 648.91 315.84"><defs><style>.cls-1{fill:#193556;}</style></defs><title>main</title><g id="레이어_2" data-name="레이어 2"><g id="레이어_1-2" data-name="레이어 1"><path class="cls-1" d="M78.49,96.71a9.57,9.57,0,0,1-2.88,6.05,72.1,72.1,0,0,1-13.46,18.91q-9.82,10.12-15.88,10.13a8.53,8.53,0,0,1-1.66-.15q-6.66-2.13-15-5.3-14.82-6-22.68-23.13Q0,87.79,0,67.38q0-25,9.53-44,10.13-20.26,25.4-21,5.9-.3,17.32,6.05T67.3,21q3.63,6.27,5,27.44a24.76,24.76,0,0,1-1.21,9.23c-1.21,3.73-2.78,5.44-4.69,5.14a83.4,83.4,0,0,1-13.31-3.33q-9.67-3.16-10.43-5.29a3.57,3.57,0,0,1-.31-1.36,6.81,6.81,0,0,1,1.29-3.4,6.94,6.94,0,0,0,1.28-3.41,95.2,95.2,0,0,0,.76-11.64q0-7.86-1.81-10.89-9.07,6.66-13.77,22.23a104,104,0,0,0-3.93,29.79,104.72,104.72,0,0,0,2.27,22.91q2.27,10.06,5.44,12.18,1.52.9,8.4-6.13t8.84-11.26a47.64,47.64,0,0,0,1.37-4.84c.6-1.82,1.41-2.93,2.42-3.33q2.57-.91,13.23,4.31T78.49,96.71Z"/><path class="cls-1" d="M174.06,108.36q1.37,2.56-5.37,12.63t-11.26,9.9q-4.85-.15-7.72-5.14a20.21,20.21,0,0,0-2.27-4.39l-31.9-29.79v28a10,10,0,0,0,1.28,4.23,9.92,9.92,0,0,1,1.29,3.78q0,4.55-5.9,5-4.54.47-13.46-1.66-9.68-2.12-9.68-4.54a7.85,7.85,0,0,1,.38-2,11.77,11.77,0,0,0,.38-3.25V15.51a3.84,3.84,0,0,0-.46-1.9,3,3,0,0,1-.45-1.28q.15-4.08,6-4.84c1.21-.2,4,.28,8.24,1.44s7.33,1.69,9.15,1.58S117.58,9,122.87,6.36s9.91-4,13.84-4a25.72,25.72,0,0,1,4.69.45,17.2,17.2,0,0,1,7.71,3.93q3.48,3,6.65,6,8.33,7.88,8.62,8.32a16.58,16.58,0,0,1,4.24,10.13q.9,17.55-30,45.07,6.36,5.74,28,28a27.66,27.66,0,0,1,3.93,1.81A22.42,22.42,0,0,1,174.06,108.36ZM140.64,23.82q-7.11,0-25.1,14.82V61.78Q122,59.22,132.62,46.2t10.59-19.35C143.21,24.83,142.35,23.82,140.64,23.82Z"/><path class="cls-1" d="M252.54,109.57a13.43,13.43,0,0,1-2.64,5.52c-1.46,2-2.75,3.15-3.86,3.55-.3.1-.86-.07-1.66-.53a4.38,4.38,0,0,0-2-.68,1.33,1.33,0,0,0-.6.15,60.35,60.35,0,0,0-9.38,3.63,88,88,0,0,0-20.57,13.16q-15.12-6.21-16.48-6.81-9.37-4.08-9.37-6V7.79q0-1,3.55-3T194.78,3A33.55,33.55,0,0,1,202,5.3,25.16,25.16,0,0,0,211,7.49q4.53,0,11.79-4.08,6.66-3.93,8.32-3.33Q234.7,1.3,241.88,8t7.79,9.6q.3,1.36-2.8,4.69t-5.06,3.33a4.79,4.79,0,0,1-2.42-.46c-.51-.3-.86-.4-1.06-.3a88.39,88.39,0,0,0-10.13,2.87q-11.19,3.8-16.49,8.78V61.18a103.4,103.4,0,0,1,13.77-5.6q2.42-.3,10.2,6.73t7.79,9.75q0,1.66-2.12,3.94a9.8,9.8,0,0,1-4.08,2.87c-1,0-2.77.1-5.29.3q-5.74,1.06-20.27,9.68v15.88Q216.26,102,224,98.3t9.6-3.7q2.12,0,10.66,6.58T252.54,109.57Z"/><path class="cls-1" d="M355.23,120.15q-.17,1.36-.61,6.51a7.24,7.24,0,0,1-1.21,4.08,5.32,5.32,0,0,1-2.57.45,39.13,39.13,0,0,1-12.4-2.57q-8-2.41-10.89-5.74c-.81-.91-1.61-3.94-2.42-9.08A121.91,121.91,0,0,0,321.35,97a111.38,111.38,0,0,0-16.78,4.16q-11,3.39-14.37,5.67-2.26,6.5-6.05,16c-.3,1.41-.63,2.74-1,4a5.24,5.24,0,0,1-2.65,3.1,2.49,2.49,0,0,1-1.36.31c-2.42,0-6.48-1.27-12.17-3.78s-8.65-4.19-8.85-5c-.41-1.42.55-4.89,2.87-10.44q4.85-12.09,5.6-14.82c-2.12-2.12-3.18-4.23-3.18-6.35a10.21,10.21,0,0,1,.15-1.66q.3-1.81,9.23-6.51l19.51-66.69a25.77,25.77,0,0,0,.15-6.65c-.21-2.72.1-4.44.91-5.14.5-.51,1.71-.76,3.62-.76q7.11,0,20.27,3.63T333,12.63q.9,16.78,6.8,50.36Q347.36,104.44,355.23,120.15Zm-39.47-46q-2-9.53-2.42-12.55a196,196,0,0,1-2.27-21Q308,48,304,61.18q-4.38,13.75-4.69,17.24Q302.15,77.21,315.76,74.18Z"/><path class="cls-1" d="M424.94,27.91a8.53,8.53,0,0,1-3.32-1,5.73,5.73,0,0,0-3.48-.68l-15.58,4.24V110a25.21,25.21,0,0,0,2.12,9.53c.4,1,.3,2.92-.3,5.75-.61,3.12-1.57,5.09-2.88,5.89a4.32,4.32,0,0,1-1.51.16,69.3,69.3,0,0,1-13.91-2q-10-2.26-11.8-4.39-2.11-2.71.15-7.26,2-3.93,2-5.74V37.13l-10.74,2.72a8.69,8.69,0,0,0-2.49,1.29,3.91,3.91,0,0,1-2.95.83q-3.48-.9-9.53-9T345.4,22q1.2-3.48,7.1-5.29a9.68,9.68,0,0,1,3.94-.16,11.2,11.2,0,0,0,3.78,0L412.84,3.1a31,31,0,0,0,4.39-1.81,8,8,0,0,1,4.39-.76q4.23.62,5.74,3.33a28.6,28.6,0,0,1,2.27,6.81A42.09,42.09,0,0,1,431.14,21a12.22,12.22,0,0,1-.83,5.07Q429.49,27.76,424.94,27.91Z"/><path class="cls-1" d="M470.76,9.76a8.59,8.59,0,0,1-.68,2.87c-.45,1.21-.73,2-.83,2.27a70.29,70.29,0,0,0-1.81,9.38v92.85a6,6,0,0,0,.9,3.25,4.75,4.75,0,0,1,.91,2.35q0,9.67-3.63,10.43-1.37.3-10.59-2-9.67-2.41-11.19-3.78c-2.22-1.91-3.32-3.68-3.32-5.29a2.29,2.29,0,0,1,.6-1.36,4.19,4.19,0,0,0,.61-2.57V11.57a4.05,4.05,0,0,0-.53-1.89,3.88,3.88,0,0,1-.53-1.89Q441,4.16,446.26,3a37.71,37.71,0,0,1,7,0,57,57,0,0,1,10.89,1.67Q470.76,6.44,470.76,9.76Z"/><path class="cls-1" d="M570.57,12.78q-7.86,20.12-17.84,61.1-9.08,37.05-8.93,42a57.05,57.05,0,0,0,.31,7,12.21,12.21,0,0,1-1.06,6.35q-1.51,3.63-4.09,4.08-4.38.91-17.61-3.33t-15.2-7.41a8.51,8.51,0,0,1-1.06-3.93,22,22,0,0,0-.45-4.08Q487.39,60,483.92,16.72a14.36,14.36,0,0,0-.76-3.18,9.2,9.2,0,0,1-.3-3.18q.75-5.28,4.38-6.5,1.81-.6,12.71,2.87,11.49,3.63,12.7,6.2.6,1.52,0,6.36a9.89,9.89,0,0,1-1.06,2.64,5.18,5.18,0,0,0-.75,2.95q2.27,15.89,4.23,28,4.84,29,7.56,34.48a357.51,357.51,0,0,1,9.08-36,342.53,342.53,0,0,0,9.07-36.6A42.62,42.62,0,0,1,542.14,7a8.16,8.16,0,0,1,5-4.69q2.42-.75,11.34,2.57Q568.15,8.7,570.57,12.78Z"/><path class="cls-1" d="M648.9,109.57a13.43,13.43,0,0,1-2.64,5.52c-1.46,2-2.75,3.15-3.86,3.55-.3.1-.86-.07-1.66-.53a4.38,4.38,0,0,0-2-.68,1.33,1.33,0,0,0-.6.15,60.35,60.35,0,0,0-9.38,3.63,88,88,0,0,0-20.57,13.16q-15.12-6.21-16.48-6.81-9.37-4.08-9.38-6V7.79q0-1,3.56-3c2.37-1.31,4.1-1.92,5.22-1.82a33.36,33.36,0,0,1,7.25,2.35,25.25,25.25,0,0,0,8.93,2.19q4.53,0,11.79-4.08,6.66-3.93,8.32-3.33Q631.06,1.3,638.24,8t7.79,9.6q.3,1.36-2.8,4.69t-5.06,3.33a4.79,4.79,0,0,1-2.42-.46c-.51-.3-.86-.4-1.06-.3a88.39,88.39,0,0,0-10.13,2.87q-11.2,3.8-16.49,8.78V61.18a103.76,103.76,0,0,1,13.76-5.6q2.43-.3,10.21,6.73t7.79,9.75q0,1.66-2.12,3.94a9.8,9.8,0,0,1-4.08,2.87c-1,0-2.77.1-5.29.3q-5.76,1.06-20.27,9.68v15.88q4.54-2.73,12.33-6.43t9.6-3.7q2.12,0,10.66,6.58T648.9,109.57Z"/><path class="cls-1" d="M77,234.33q0,16.48-8.92,35.84a146.45,146.45,0,0,1-17.84,29.34q-9.52,11.79-14.07,13.76a13.61,13.61,0,0,1-5.14.91q-6.66,0-15.12-4.24-7.56-3.46-11.34-7.56V193.5a5,5,0,0,1,4.53-4.69c.31-.1,2.82.25,7.56,1.06q1.36.15,9-3.18t13.08-3.32a25.14,25.14,0,0,1,12.71,3.48A89.69,89.69,0,0,1,61.85,195Q72,203.79,75,213.46,77,220,77,234.33Zm-25.1-29.19a4.94,4.94,0,0,0-2.42-.45q-8,0-19.2,7v68q10.28-5.9,17.54-28.89,6.2-19.8,6.2-36Q54,206.36,51.87,205.14Z"/><path class="cls-1" d="M156.21,291a13.37,13.37,0,0,1-2.64,5.52q-2.19,3-3.86,3.55c-.3.11-.86-.07-1.66-.52a4.3,4.3,0,0,0-2-.69,1.35,1.35,0,0,0-.6.16,58.41,58.41,0,0,0-9.38,3.63,88,88,0,0,0-20.57,13.15q-15.12-6.19-16.48-6.8-9.37-4.1-9.38-6.05V189.27q0-1.07,3.56-3c2.37-1.31,4.1-1.91,5.22-1.81a32.55,32.55,0,0,1,7.25,2.34,25.25,25.25,0,0,0,8.93,2.19q4.53,0,11.79-4.08,6.66-3.93,8.32-3.33,3.63,1.22,10.81,7.94t7.79,9.6c.2.91-.73,2.48-2.8,4.69s-3.75,3.33-5.06,3.33a4.91,4.91,0,0,1-2.42-.45c-.51-.31-.86-.41-1.06-.31a86.38,86.38,0,0,0-10.13,2.88Q120.67,213,115.38,218v24.65a103.4,103.4,0,0,1,13.77-5.6q2.41-.3,10.2,6.73t7.79,9.76q0,1.67-2.12,3.93a9.8,9.8,0,0,1-4.08,2.87c-1,0-2.77.1-5.29.3q-5.76,1.07-20.27,9.68V286.2q4.55-2.71,12.33-6.43t9.6-3.7q2.12,0,10.66,6.58T156.21,291Z"/><path class="cls-1" d="M230.62,287.26q0,11.19-7.41,18.37t-20.57,7.49a26.26,26.26,0,0,1-7.11-1.06q-7-2-7.26-2-3.63-.77-7.33-1.59a13.53,13.53,0,0,1-6.43-3.41q-4.08-3.62-6.65-11.79-3.18-9.53-4.84-11.95a19.08,19.08,0,0,1-2.87-4.23,6.13,6.13,0,0,1,.83-4.46,5.82,5.82,0,0,1,3.1-2.8,12.2,12.2,0,0,1,3.32-.3,80.71,80.71,0,0,1,12.93,1.28q7.63,1.29,8.55,2.35t2.42,10.88q1.37,9.07,4.08,10.14a3,3,0,0,0,1.36.3q2.88,0,4.92-4.76a27.25,27.25,0,0,0,2-10.82q0-13.15-8.17-17.54-18.75-10.12-26.31-18.75a31.2,31.2,0,0,1-7.86-23.59q.75-11.34,8.24-22.91t15.8-13.54q3.48-.75,21.17,6.66c2.93,1.11,5.87,2.26,8.85,3.47a17.07,17.07,0,0,1,7.18,5.3q4.23,5.29,4.24,18.29c0,1.62-.06,4-.15,7.11-.11,2.72-.16,4.64-.16,5.75a19.58,19.58,0,0,0,1.06,3.48,6.46,6.46,0,0,1,.61,3.32q-.31,6.66-5.6,7.41c-2,.31-5.74-.45-11.19-2.26q-9.07-2.88-11.49-6.2a8.16,8.16,0,0,1-.3-3c0-1.51.17-4.94.53-10.28s.52-9.23.52-11.65q0-6.49-1.51-6.35-4.68.3-7.79,6.73a33.28,33.28,0,0,0-3.1,14.59q0,13.62,8,19.36l18.15,11.49q8.61,5.61,11.94,11.2Q230.61,274.25,230.62,287.26Z"/><path class="cls-1" d="M273.11,191.23a8.85,8.85,0,0,1-.68,2.87c-.45,1.21-.73,2-.83,2.27a70,70,0,0,0-1.82,9.38V298.6a6,6,0,0,0,.91,3.25,4.75,4.75,0,0,1,.91,2.35q0,9.68-3.63,10.43-1.37.3-10.59-2-9.67-2.43-11.19-3.78c-2.22-1.92-3.33-3.68-3.33-5.3a2.34,2.34,0,0,1,.61-1.36,4.2,4.2,0,0,0,.6-2.57V193.05a4,4,0,0,0-.52-1.89,3.94,3.94,0,0,1-.53-1.89c.2-2.42,2.06-4,5.59-4.84a35.92,35.92,0,0,1,7,0,56.25,56.25,0,0,1,10.89,1.66Q273.11,187.91,273.11,191.23Z"/><path class="cls-1" d="M369.44,256.26q-.45,6-5.29,7.71a3.26,3.26,0,0,1-2.12-.53,4.42,4.42,0,0,0-2-.68,4.88,4.88,0,0,0-2,.46q-5.91,22.53-9.23,30.24-6,14.37-15.73,18.75a12.21,12.21,0,0,1-5.29,1.21q-2.72,0-13.46-3.93-4.08-1.07-12.85-4.39-8.78-4.23-13.61-19.5-4.4-13.92-4.39-33.12,0-25,7-44.46,7.56-21.33,20-23.9a17.33,17.33,0,0,1,2.42-.15q7.56,0,18.45,4.84Q343,194,347.06,200.15a30.06,30.06,0,0,1,4.38,12.71c.91,5.84,1.46,9,1.67,9.52.3,1.72.7,3.78,1.2,6.2a10.37,10.37,0,0,1-4.68,7.87q-2,.75-11.8-2.19c-6.55-2-10.49-3.51-11.79-4.62-1.82-1.21-2.58-3.57-2.27-7.11a3.72,3.72,0,0,1,.75-1.89,3.72,3.72,0,0,0,.76-2q0-10.72-2.42-10.73-5.14-.15-9.07,17.24a164.44,164.44,0,0,0-3.63,35.69q0,28.72,8,33,2.41,1.22,6.58-8.31a58.39,58.39,0,0,0,4.92-17.85,49.61,49.61,0,0,0-9.23-4.69q-5.44-2.27-5.9-3.93-.6-2.26,1.51-6.43c1.42-2.77,2.9-4.56,4.47-5.37a16.05,16.05,0,0,1,6.57-1.36,44,44,0,0,0,7-.3,55.82,55.82,0,0,0,8.32-2.57,21.8,21.8,0,0,1,7.11-1.81,8.61,8.61,0,0,1,1.66.15q3.78.75,11.11,6.8T369.44,256.26Z"/><path class="cls-1" d="M464.25,191.23a8.56,8.56,0,0,1-.6,3.18,23.05,23.05,0,0,0-1.36,4.08V298.3c0-.3.25,1.56.76,5.6q.9,6.94-1.82,9.07T449,314.18a53.51,53.51,0,0,1-12.55-2.87q-9.23-2.88-10.13-6.05a34.31,34.31,0,0,0-.46-6.51q-8.46-22.38-19.66-49.15v44.77a7.29,7.29,0,0,0,1.06,3.17,26.66,26.66,0,0,1,1.36,2.73,14.07,14.07,0,0,1,.76,4.53c0,4-1.82,6.05-5.44,6.05s-8.52-1-15-3q-9.06-3-10.28-4.69-1.82-2.42,0-6.2t1.82-4.69V197.43a12.7,12.7,0,0,0-.46-2.72,5.8,5.8,0,0,1-.15-2.87,10.1,10.1,0,0,1,5.9-7,11.27,11.27,0,0,1,3.33-.3,50.79,50.79,0,0,1,12.09,1.51q8,1.82,11.19,5.14,4.25,4.54,11,27.68,8.32,28.43,13,38.41V197.88a13.57,13.57,0,0,0-.61-3.4,13.86,13.86,0,0,1-.6-3.4,4.42,4.42,0,0,1,.3-1.66c.51-1.72,2.42-3,5.75-3.78a21.88,21.88,0,0,1,7.56-.76,46.9,46.9,0,0,1,8.32,1.66Q464.1,188.67,464.25,191.23Z"/><path class="cls-1" d="M545.31,291a13.37,13.37,0,0,1-2.64,5.52c-1.47,2-2.75,3.15-3.86,3.55-.3.11-.86-.07-1.66-.52a4.33,4.33,0,0,0-2-.69,1.42,1.42,0,0,0-.61.16,58.31,58.31,0,0,0-9.37,3.63,88,88,0,0,0-20.57,13.15q-15.12-6.19-16.48-6.8-9.37-4.1-9.38-6.05V189.27q0-1.07,3.56-3t5.21-1.81a32.74,32.74,0,0,1,7.26,2.34,25.21,25.21,0,0,0,8.92,2.19q4.54,0,11.8-4.08,6.66-3.93,8.32-3.33,3.63,1.22,10.81,7.94t7.79,9.6c.2.91-.73,2.48-2.8,4.69s-3.76,3.33-5.07,3.33a4.94,4.94,0,0,1-2.42-.45c-.5-.31-.85-.41-1-.31A87.12,87.12,0,0,0,521,209.23Q509.77,213,504.48,218v24.65a103.2,103.2,0,0,1,13.76-5.6q2.41-.3,10.21,6.73t7.79,9.76q0,1.67-2.12,3.93a9.8,9.8,0,0,1-4.08,2.87c-1,0-2.78.1-5.3.3q-5.75,1.07-20.26,9.68V286.2q4.53-2.71,12.33-6.43t9.6-3.7q2.12,0,10.66,6.58T545.31,291Z"/><path class="cls-1" d="M640.43,289.83q1.37,2.58-5.37,12.63t-11.26,9.9q-4.84-.15-7.72-5.14a20,20,0,0,0-2.26-4.38L581.91,273v28a10.18,10.18,0,0,0,1.28,4.24,9.81,9.81,0,0,1,1.29,3.78q0,4.53-5.9,5-4.53.45-13.46-1.67-9.68-2.12-9.68-4.53a7.71,7.71,0,0,1,.38-2,11.85,11.85,0,0,0,.38-3.26V197a3.88,3.88,0,0,0-.45-1.89,3,3,0,0,1-.46-1.29q.15-4.08,6.05-4.84,1.81-.3,8.24,1.44t9.15,1.59q2.57-.15,10.51-4.16t13.84-4a25.72,25.72,0,0,1,4.69.45,17.12,17.12,0,0,1,7.71,3.94q3.48,3,6.65,6,8.32,7.86,8.62,8.31A16.55,16.55,0,0,1,635,212.71q.9,17.53-29.94,45.06,6.35,5.75,28,28a28.86,28.86,0,0,1,3.93,1.81A22.42,22.42,0,0,1,640.43,289.83ZM607,205.3q-7.11,0-25.1,14.82v23.13q6.5-2.56,17.09-15.57t10.58-19.36C609.58,206.3,608.72,205.3,607,205.3Z"/></g></g></svg>