<svg xmlns="http://www.w3.org/2000/svg" viewBox="0 0 256 32" enable-background="new 0 0 256 32"><style type="text/css">.st0{fill:#35363C;}</style><path class="st0" d="M0 26.33h2.91v-9.58c1.21.02 2.43-.11 3.61-.4.88-.3 1.62-.94 2.05-1.78.6-1.2.89-2.54.82-3.88 0-4.12-1.54-6.18-4.63-6.19h-4.76v21.83zm2.91-19.58c.99-.13 1.98.17 2.74.82.56.93.8 2.03.69 3.12 0 1.52-.26 2.53-.79 3.03-.76.58-1.7.84-2.64.75v-7.72zM27.52 23.91h-4.92v-7.52h4.43v-2.48h-4.43v-6.92h4.78v-2.49h-7.65v21.83h7.79v-2.42zM44.17 4.5h-2.38l-4.65 21.83h2.77l.8-4.32h4.56l.79 4.32h2.8l-4.69-21.83zm-3.05 15.3l1.79-10.36h.07l1.89 10.36h-3.75zM64.96 15.84c.99-.35 1.82-1.03 2.37-1.94.55-1.19.8-2.51.73-3.82 0-3.72-1.64-5.59-4.92-5.59h-4.02v21.83h2.91v-10.24h.25l3.37 10.25h3.01l-3.7-10.49zm-2.94-9.06h.17c.87-.09 1.72.22 2.34.84.53.83.77 1.82.68 2.81.11 1.01-.16 2.02-.75 2.84-.68.58-1.55.88-2.44.81v-7.3zM86.46 23.88h-4.88v-19.38h-2.91v21.83h7.79v-2.45zM107.41 4.5h-2.38l-4.65 21.83h2.76l.79-4.32h4.56l.79 4.32h2.8l-4.67-21.83zm-3.05 15.3l1.79-10.36h.07l1.89 10.36h-3.75zM122.42 26.33h4.33c1.32.08 2.61-.43 3.51-1.41.89-1.14 1.33-2.57 1.23-4.02 0-3.16-1.13-4.98-3.4-5.45 2.08-.74 3.12-2.5 3.13-5.26.13-1.56-.34-3.1-1.32-4.31-1.12-1.01-2.6-1.51-4.09-1.38h-3.4v21.83zm5.39-18.76c.52.92.75 1.98.65 3.03.1 1.01-.17 2.03-.75 2.86-.65.61-1.52.92-2.41.87v-7.58c.91-.12 1.83.18 2.51.82zm-.06 9.82c.59.92.85 2.02.74 3.12.12 1.01-.14 2.03-.74 2.85-.7.56-1.57.83-2.46.76v-7.61c.91-.07 1.8.24 2.46.88zM148.93 4.5l-2.71 9.81-.06.03-2.68-9.84h-2.88l4.09 12.66v9.17h2.91v-9.3l4.19-12.53h-2.86zM168.57 4.93c-.95-.49-2.01-.76-3.08-.77-1.34-.05-2.63.5-3.55 1.49-.94 1.06-1.43 2.45-1.37 3.88-.02.96.16 1.9.54 2.78.45.92 1.01 1.79 1.67 2.57l1.94 2.42c.57.67 1.07 1.39 1.51 2.14.28.53.42 1.11.42 1.71.03.81-.27 1.6-.82 2.19-.54.57-1.3.88-2.08.86-.55-.01-1.09-.14-1.59-.39-.37-.16-.73-.35-1.06-.57l-.1-.05v2.62c.99.46 2.06.72 3.14.77 1.41.06 2.79-.49 3.78-1.52.98-1.07 1.5-2.49 1.44-3.95.02-1.22-.28-2.41-.89-3.46-.77-1.25-1.62-2.44-2.56-3.56-.81-.93-1.53-1.93-2.15-2.99-.3-.54-.46-1.14-.48-1.76-.01-.75.28-1.46.8-1.99.5-.54 1.21-.83 1.93-.82.9.04 1.78.31 2.55.77l.01-2.37zM186.68 4.93c-.95-.49-2.01-.76-3.08-.77-1.34-.05-2.64.5-3.55 1.49-.94 1.06-1.43 2.45-1.37 3.88-.02.96.16 1.9.54 2.78.45.92 1.01 1.79 1.67 2.57l1.94 2.42c.57.67 1.07 1.39 1.51 2.14.28.53.42 1.11.42 1.71.03.81-.27 1.61-.82 2.19-.54.57-1.3.88-2.08.86-.55-.01-1.09-.14-1.59-.39-.37-.16-.73-.35-1.06-.57l-.1-.05v2.62c.99.46 2.06.72 3.14.77 1.41.06 2.79-.49 3.78-1.52.98-1.07 1.5-2.49 1.44-3.95.02-1.22-.28-2.41-.89-3.46-.77-1.25-1.62-2.44-2.56-3.56-.81-.93-1.53-1.93-2.15-2.99-.3-.54-.46-1.14-.48-1.76-.01-.75.28-1.46.8-1.99.5-.53 1.21-.83 1.93-.82.9.04 1.78.31 2.55.77l.01-2.37zM252.94 0h-46.81c-1.69 0-3.05 1.39-3.05 3.1v25.8c0 1.71 1.36 3.1 3.05 3.1h46.82c1.69 0 3.05-1.39 3.05-3.1v-25.8c0-1.72-1.37-3.1-3.06-3.1zm-31.12 24.68h-2.31v-17.33h2.31v17.33zm16.44-1.97c-.79 1.31-2.22 1.97-4.29 1.97h-2.93v-17.33h3.33c1.46-.06 2.85.62 3.72 1.8.91 1.2 1.36 3.46 1.36 6.78.01 3.2-.39 5.46-1.19 6.78zM233.66 9.13h-.31v13.8c.77.05 1.54-.14 2.2-.55.6-.52.99-1.24 1.12-2.03.29-1.46.41-2.96.37-4.45.11-1.79-.13-3.58-.69-5.28-.5-1.02-1.57-1.61-2.69-1.49z"/></svg>